<svg width="543" height="413" viewBox="0 0 543 413" fill="none" xmlns="http://www.w3.org/2000/svg">
<path d="M461.276 250.2C463.965 243.04 462.003 235.935 456.895 234.331C451.786 232.728 445.465 237.233 442.776 244.394C440.088 251.555 442.049 258.66 447.158 260.263C452.267 261.866 458.588 257.361 461.276 250.2Z" fill="#F4F4F4"/>
<path d="M443.084 244.377C446.725 242.88 447.646 237.543 445.143 232.457C442.639 227.371 437.658 224.461 434.018 225.958C430.378 227.455 429.456 232.791 431.96 237.878C434.464 242.964 439.444 245.874 443.084 244.377Z" fill="#F4F4F4"/>
<path d="M436.193 256.185L455.659 256.2C459.222 256.203 462.113 258.849 462.11 262.106L462.104 270.202C462.102 273.459 459.207 276.101 455.644 276.098L436.178 276.083L436.193 256.185Z" fill="#F4F4F4"/>
<g opacity="0.05">
<path d="M436.193 256.185L455.659 256.2C459.222 256.203 462.113 258.849 462.11 262.106L462.104 270.202C462.102 273.459 459.207 276.101 455.644 276.098L436.178 276.083L436.193 256.185Z" fill="#292A2E"/>
</g>
<g opacity="0.05">
<path d="M459.639 242.467C459.631 242.467 459.623 242.467 459.615 242.465C459.535 242.458 459.465 242.414 459.427 242.35C459.327 242.178 459.377 241.988 459.414 241.85C459.526 241.42 459.497 240.951 459.334 240.554C459.288 240.441 459.351 240.314 459.475 240.271C459.599 240.229 459.738 240.287 459.784 240.401C459.941 240.784 459.995 241.222 459.941 241.642C460.229 241.405 460.542 241.207 460.868 241.058C460.985 241.003 461.13 241.046 461.19 241.155C461.249 241.263 461.202 241.395 461.083 241.449C460.622 241.661 460.187 241.985 459.824 242.387C459.778 242.437 459.71 242.466 459.638 242.466L459.639 242.467Z" fill="#292A2E"/>
<path d="M452.362 237.235C452.331 237.235 452.3 237.229 452.271 237.218C452.074 237.143 451.983 236.968 451.916 236.839C451.71 236.44 451.369 236.098 450.976 235.89C450.861 235.83 450.821 235.696 450.887 235.591C450.953 235.486 451.101 235.45 451.215 235.51C451.596 235.711 451.935 236.014 452.179 236.366C452.24 236.012 452.346 235.672 452.494 235.362C452.547 235.251 452.689 235.202 452.81 235.25C452.931 235.298 452.986 235.428 452.933 235.538C452.722 235.979 452.607 236.49 452.602 237.017C452.601 237.09 452.561 237.158 452.494 237.198C452.454 237.222 452.408 237.234 452.362 237.234L452.362 237.235Z" fill="#292A2E"/>
<path d="M446.219 244.309C446.188 244.309 446.157 244.303 446.128 244.293C445.932 244.219 445.841 244.045 445.775 243.917C445.567 243.515 445.225 243.173 444.832 242.965C444.717 242.904 444.677 242.77 444.743 242.665C444.81 242.56 444.957 242.524 445.071 242.585C445.452 242.785 445.791 243.089 446.036 243.441C446.095 243.086 446.202 242.747 446.35 242.437C446.403 242.326 446.545 242.277 446.666 242.324C446.787 242.373 446.843 242.502 446.789 242.613C446.578 243.054 446.464 243.564 446.458 244.091C446.458 244.164 446.417 244.232 446.351 244.272C446.311 244.296 446.264 244.309 446.218 244.309L446.219 244.309Z" fill="#292A2E"/>
<path d="M452.736 243.244C452.705 243.244 452.674 243.238 452.645 243.227C452.448 243.153 452.357 242.978 452.291 242.85C452.084 242.45 451.742 242.108 451.349 241.9C451.234 241.839 451.194 241.705 451.261 241.6C451.327 241.495 451.473 241.459 451.589 241.52C451.969 241.72 452.308 242.024 452.553 242.376C452.613 242.021 452.719 241.681 452.867 241.372C452.92 241.261 453.063 241.211 453.183 241.259C453.304 241.308 453.36 241.437 453.306 241.548C453.095 241.989 452.981 242.5 452.975 243.026C452.975 243.099 452.934 243.167 452.868 243.207C452.828 243.232 452.781 243.244 452.735 243.244L452.736 243.244Z" fill="#292A2E"/>
<path d="M456.876 249.435C456.838 249.435 456.8 249.427 456.767 249.411C456.695 249.378 456.647 249.314 456.638 249.241C456.613 249.048 456.733 248.889 456.82 248.773C457.094 248.411 457.25 247.965 457.254 247.54C457.255 247.419 457.362 247.322 457.494 247.322L457.496 247.322C457.628 247.323 457.735 247.422 457.734 247.544C457.729 247.956 457.607 248.386 457.391 248.759C457.754 248.636 458.125 248.559 458.488 248.531C458.617 248.522 458.737 248.61 458.747 248.732C458.758 248.852 458.661 248.959 458.528 248.968C458.016 249.008 457.485 249.159 456.991 249.408C456.956 249.426 456.916 249.435 456.876 249.435Z" fill="#292A2E"/>
<path d="M446.762 253.241C446.729 253.241 446.695 253.235 446.664 253.222C446.47 253.142 446.385 252.964 446.323 252.833C446.13 252.429 445.799 252.076 445.413 251.858C445.3 251.794 445.265 251.658 445.335 251.556C445.405 251.452 445.553 251.422 445.666 251.484C446.039 251.696 446.368 252.009 446.601 252.368C446.672 252.016 446.79 251.68 446.948 251.374C447.006 251.264 447.15 251.219 447.269 251.27C447.389 251.322 447.44 251.453 447.383 251.563C447.157 251.996 447.026 252.504 447.003 253.03C446.999 253.103 446.957 253.17 446.889 253.208C446.85 253.23 446.806 253.241 446.763 253.241L446.762 253.241Z" fill="#292A2E"/>
<path d="M452.776 255.284C452.769 255.284 452.76 255.284 452.752 255.283C452.672 255.276 452.602 255.232 452.564 255.167C452.465 254.995 452.515 254.807 452.55 254.67C452.663 254.237 452.634 253.768 452.472 253.372C452.425 253.258 452.487 253.132 452.612 253.089C452.735 253.046 452.874 253.104 452.921 253.217C453.078 253.6 453.131 254.04 453.078 254.459C453.366 254.222 453.679 254.024 454.005 253.874C454.122 253.82 454.266 253.863 454.327 253.972C454.386 254.08 454.339 254.212 454.22 254.266C453.76 254.478 453.324 254.802 452.961 255.204C452.915 255.254 452.847 255.283 452.776 255.283L452.776 255.284Z" fill="#292A2E"/>
</g>
<g opacity="0.05">
<path d="M442.007 234.33C441.999 234.33 441.991 234.33 441.983 234.329C441.903 234.322 441.833 234.278 441.795 234.214C441.695 234.041 441.745 233.852 441.782 233.714C441.894 233.284 441.865 232.815 441.702 232.418C441.655 232.305 441.719 232.178 441.843 232.135C441.966 232.093 442.105 232.151 442.152 232.265C442.309 232.647 442.363 233.086 442.309 233.505C442.597 233.269 442.91 233.071 443.236 232.921C443.353 232.868 443.498 232.91 443.558 233.019C443.617 233.127 443.57 233.259 443.451 233.313C442.99 233.525 442.555 233.849 442.192 234.25C442.146 234.301 442.078 234.33 442.006 234.33L442.007 234.33Z" fill="#292A2E"/>
<path d="M436.963 229.413C436.932 229.412 436.901 229.407 436.872 229.396C436.675 229.322 436.585 229.147 436.518 229.019C436.311 228.619 435.969 228.276 435.576 228.069C435.461 228.008 435.421 227.874 435.488 227.769C435.554 227.664 435.7 227.628 435.816 227.688C436.196 227.889 436.535 228.192 436.78 228.545C436.84 228.19 436.946 227.85 437.094 227.541C437.147 227.43 437.29 227.38 437.41 227.428C437.531 227.476 437.587 227.606 437.533 227.717C437.322 228.158 437.208 228.668 437.202 229.195C437.202 229.268 437.161 229.336 437.095 229.376C437.055 229.4 437.008 229.413 436.962 229.413L436.963 229.413Z" fill="#292A2E"/>
<path d="M436.149 234.64C436.118 234.64 436.087 234.634 436.058 234.623C435.861 234.549 435.77 234.373 435.703 234.244C435.497 233.846 435.156 233.503 434.762 233.296C434.648 233.235 434.608 233.101 434.674 232.996C434.74 232.891 434.888 232.855 435.002 232.915C435.383 233.116 435.722 233.419 435.966 233.771C436.026 233.417 436.132 233.077 436.28 232.768C436.334 232.657 436.476 232.607 436.596 232.655C436.718 232.703 436.773 232.833 436.72 232.944C436.509 233.384 436.394 233.895 436.389 234.422C436.388 234.495 436.348 234.563 436.281 234.603C436.241 234.627 436.195 234.639 436.149 234.639L436.149 234.64Z" fill="#292A2E"/>
<path d="M440.289 240.831C440.252 240.831 440.214 240.823 440.18 240.807C440.108 240.773 440.06 240.709 440.051 240.637C440.027 240.444 440.146 240.286 440.234 240.17C440.507 239.808 440.663 239.361 440.668 238.936C440.67 238.815 440.777 238.718 440.908 238.719L440.91 238.719C441.042 238.72 441.15 238.819 441.148 238.94C441.143 239.353 441.021 239.782 440.805 240.155C441.168 240.032 441.539 239.955 441.902 239.927C442.021 239.916 442.15 240.007 442.161 240.128C442.172 240.248 442.074 240.354 441.942 240.365C441.432 240.403 440.901 240.555 440.406 240.804C440.37 240.822 440.33 240.831 440.29 240.831L440.289 240.831Z" fill="#292A2E"/>
<path d="M435.268 239.464C435.079 239.464 434.927 239.359 434.814 239.28C434.432 239.015 433.962 238.86 433.512 238.846C433.379 238.842 433.276 238.741 433.28 238.62C433.284 238.498 433.394 238.398 433.528 238.407C433.966 238.42 434.419 238.543 434.812 238.751C434.688 238.408 434.613 238.058 434.592 237.716C434.585 237.595 434.686 237.491 434.818 237.484C434.966 237.473 435.064 237.57 435.072 237.691C435.102 238.173 435.252 238.676 435.507 239.145C435.543 239.209 435.541 239.286 435.503 239.348C435.464 239.411 435.395 239.453 435.317 239.461C435.301 239.462 435.284 239.463 435.269 239.463L435.268 239.464Z" fill="#292A2E"/>
</g>
<path d="M415.43 263.699L370.28 263.665L370.271 275.674L415.421 275.708L415.43 263.699Z" fill="#F4F4F4"/>
<path opacity="0.05" d="M409.366 263.695L403.451 263.69L403.441 275.699L409.357 275.703L409.366 263.695Z" fill="#292A2E"/>
<path d="M400.646 266.298L376.047 266.28L376.042 273.396L400.641 273.415L400.646 266.298Z" fill="white"/>
<path d="M376.231 248.488L334.266 265.206L339.516 276.215L381.481 259.497L376.231 248.488Z" fill="#F4F4F4"/>
<path opacity="0.05" d="M376.231 248.488L334.266 265.206L339.516 276.215L381.481 259.497L376.231 248.488Z" fill="#292A2E"/>
<path d="M345.4 260.77L339.901 262.961L345.151 273.97L350.65 271.779L345.4 260.77Z" fill="white"/>
<path d="M372.009 253.017L349.145 262.125L352.256 268.649L375.12 259.541L372.009 253.017Z" fill="white"/>
<path opacity="0.05" d="M345.445 381.355L334.099 381.347L334.094 388.274L345.44 388.282L345.445 381.355Z" fill="#292A2E"/>
<path opacity="0.05" d="M512.035 381.481L500.689 381.473L500.684 388.399L512.03 388.408L512.035 381.481Z" fill="#292A2E"/>
<path d="M522.516 275.956L323.778 275.806L323.698 381.339L522.436 381.489L522.516 275.956Z" fill="#F4F4F4"/>
<path opacity="0.03" d="M522.516 275.956L323.778 275.806L323.698 381.339L522.436 381.489L522.516 275.956Z" fill="#292A2E"/>
<path d="M495.062 275.936L296.323 275.786L296.244 381.318L494.982 381.468L495.062 275.936Z" fill="#F4F4F4"/>
<path opacity="0.05" d="M317.991 381.335L306.644 381.326L306.639 388.253L317.985 388.261L317.991 381.335Z" fill="#292A2E"/>
<path opacity="0.05" d="M484.581 381.46L473.235 381.452L473.23 388.379L484.576 388.387L484.581 381.46Z" fill="#292A2E"/>
<path opacity="0.7" d="M489.495 282.456L301.879 282.314L301.859 309.081L489.475 309.222L489.495 282.456Z" fill="white"/>
<path opacity="0.7" d="M489.47 315.774L301.854 315.632L301.834 342.398L489.449 342.54L489.47 315.774Z" fill="white"/>
<path opacity="0.7" d="M489.444 349.09L301.829 348.949L301.809 375.715L489.424 375.857L489.444 349.09Z" fill="white"/>
<path opacity="0.05" d="M335.05 299.468C337.313 299.469 339.148 297.794 339.15 295.726C339.151 293.657 337.318 291.979 335.056 291.977C332.793 291.976 330.957 293.651 330.956 295.719C330.954 297.788 332.787 299.466 335.05 299.468Z" fill="#292A2E"/>
<path opacity="0.05" d="M456.299 299.559C458.561 299.561 460.397 297.886 460.399 295.817C460.4 293.749 458.567 292.071 456.304 292.069C454.042 292.067 452.206 293.743 452.204 295.811C452.203 297.879 454.036 299.558 456.299 299.559Z" fill="#292A2E"/>
<path opacity="0.05" d="M335.025 332.785C337.288 332.787 339.123 331.112 339.125 329.043C339.126 326.975 337.293 325.297 335.03 325.295C332.768 325.293 330.932 326.969 330.931 329.037C330.929 331.105 332.762 332.784 335.025 332.785Z" fill="#292A2E"/>
<path opacity="0.05" d="M456.273 332.877C458.536 332.879 460.372 331.203 460.373 329.135C460.375 327.066 458.542 325.388 456.279 325.387C454.016 325.385 452.181 327.06 452.179 329.129C452.178 331.197 454.011 332.875 456.273 332.877Z" fill="#292A2E"/>
<path opacity="0.05" d="M335 366.102C337.262 366.104 339.098 364.429 339.099 362.36C339.101 360.292 337.268 358.614 335.005 358.612C332.743 358.611 330.907 360.286 330.905 362.354C330.904 364.423 332.737 366.101 335 366.102Z" fill="#292A2E"/>
<path opacity="0.05" d="M456.248 366.194C458.511 366.196 460.347 364.52 460.348 362.452C460.35 360.384 458.517 358.705 456.254 358.704C453.991 358.702 452.156 360.377 452.154 362.446C452.153 364.514 453.986 366.192 456.248 366.194Z" fill="#292A2E"/>
<path d="M466.367 23.7199L378.764 23.6537L378.685 127.884L466.288 127.951L466.367 23.7199Z" fill="#F4F4F4"/>
<path d="M466.287 127.951L469.129 127.953L469.208 23.722L466.366 23.7198L466.287 127.951Z" fill="#F4F4F4"/>
<path opacity="0.05" d="M466.287 127.951L469.129 127.953L469.208 23.722L466.366 23.7198L466.287 127.951Z" fill="#292A2E"/>
<path opacity="0.05" d="M450.394 42.6949L394.707 42.6528L394.657 108.91L450.344 108.952L450.394 42.6949Z" fill="#292A2E"/>
<path opacity="0.03" d="M450.394 42.6949L447.492 42.6927L447.441 108.95L450.344 108.952L450.394 42.6949Z" fill="#292A2E"/>
<path d="M537.912 153.636L466.268 153.582L466.218 219.674L537.862 219.729L537.912 153.636Z" fill="#F4F4F4"/>
<path opacity="0.05" d="M524.852 165.666L479.31 165.632L479.278 207.644L524.82 207.679L524.852 165.666Z" fill="#292A2E"/>
<path d="M537.862 219.729L540.704 219.731L540.754 153.639L537.912 153.636L537.862 219.729Z" fill="#F4F4F4"/>
<path opacity="0.05" d="M537.862 219.729L540.704 219.731L540.754 153.639L537.912 153.636L537.862 219.729Z" fill="#292A2E"/>
<path opacity="0.03" d="M524.852 165.666L521.95 165.664L521.918 207.677L524.82 207.679L524.852 165.666Z" fill="#292A2E"/>
<path d="M190.372 44.9859L7.55969 44.8478L7.43345 211.957L190.246 212.095L190.372 44.9859Z" fill="#F4F4F4"/>
<path d="M192.468 44.9874L190.372 44.9858L190.246 212.095L192.342 212.097L192.468 44.9874Z" fill="#F4F4F4"/>
<path opacity="0.05" d="M192.468 44.9874L190.372 44.9858L190.246 212.095L192.342 212.097L192.468 44.9874Z" fill="#292A2E"/>
<path opacity="0.05" d="M145.998 160.105L146.031 116.384L106.852 116.354L106.833 141.755L46.1433 141.709L46.1093 186.685L20.3153 186.666L20.2962 211.967L46.0902 211.987L51.059 211.99L181.452 212.089L181.491 160.131L145.998 160.105Z" fill="#292A2E"/>
<path opacity="0.34" d="M140.408 121.126L111.877 121.105L111.874 125.852L140.404 125.873L140.408 121.126Z" fill="#FFFFFA"/>
<path opacity="0.34" d="M140.4 130.964L111.87 130.942L111.866 135.689L140.397 135.711L140.4 130.964Z" fill="#FFFFFA"/>
<path opacity="0.34" d="M140.393 140.8L111.862 140.779L111.859 145.526L140.389 145.547L140.393 140.8Z" fill="#FFFFFA"/>
<path opacity="0.34" d="M176.429 164.736L171.17 164.732L171.166 169.479L176.425 169.483L176.429 164.736Z" fill="#FFFFFA"/>
<path opacity="0.34" d="M176.421 174.573L171.162 174.569L171.159 179.316L176.418 179.32L176.421 174.573Z" fill="#FFFFFA"/>
<path opacity="0.34" d="M176.414 184.41L171.155 184.406L171.152 189.153L176.41 189.157L176.414 184.41Z" fill="#FFFFFA"/>
<path opacity="0.34" d="M166.7 164.729L161.441 164.725L161.438 169.472L166.697 169.476L166.7 164.729Z" fill="#FFFFFA"/>
<path opacity="0.34" d="M166.693 174.565L161.434 174.561L161.43 179.308L166.689 179.312L166.693 174.565Z" fill="#FFFFFA"/>
<path opacity="0.34" d="M166.685 184.403L161.427 184.399L161.423 189.146L166.682 189.15L166.685 184.403Z" fill="#FFFFFA"/>
<path opacity="0.34" d="M157.235 164.721L151.976 164.717L151.972 169.464L157.231 169.468L157.235 164.721Z" fill="#FFFFFA"/>
<path opacity="0.34" d="M157.227 174.558L151.968 174.554L151.965 179.301L157.224 179.305L157.227 174.558Z" fill="#FFFFFA"/>
<path opacity="0.34" d="M157.22 184.395L151.961 184.391L151.957 189.139L157.216 189.142L157.22 184.395Z" fill="#FFFFFA"/>
<path d="M190.31 127.604L153.525 127.576L153.587 44.9581L150.545 44.9558L150.483 127.573L51.1228 127.498L51.1852 44.8807L48.1433 44.8784L48.0808 127.496L7.49728 127.465L7.49518 130.246L48.0787 130.277L48.017 211.988L51.059 211.99L51.1207 130.279L150.481 130.354L150.419 212.065L153.461 212.068L153.523 130.356L190.308 130.384L190.31 127.604Z" fill="white"/>
<path d="M197.529 211.9L0.151245 211.75L0.147047 217.308L197.524 217.457L197.529 211.9Z" fill="#F4F4F4"/>
<path opacity="0.1" d="M197.529 211.9L0.151245 211.75L0.147047 217.308L197.524 217.457L197.529 211.9Z" fill="#292A2E"/>
<path opacity="0.1" d="M200.378 211.902L197.529 211.9L197.524 217.457L200.374 217.459L200.378 211.902Z" fill="#292A2E"/>
<path opacity="0.1" d="M200.378 211.902L197.529 211.9L197.524 217.457L200.374 217.459L200.378 211.902Z" fill="#292A2E"/>
<path d="M79.326 243.452L403.025 243.697C410.974 243.703 417.423 237.817 417.428 230.551L417.592 13.9105C417.597 6.64407 411.158 0.748622 403.208 0.742617L79.5095 0.498087C71.5603 0.492082 65.1118 6.37779 65.1063 13.6442L64.9427 230.285C64.9372 237.551 71.3768 243.446 79.326 243.452Z" fill="white"/>
<path d="M64.4627 230.285L64.6263 13.6444C64.632 6.14744 71.3085 0.0536246 79.5093 0.0598196L403.208 0.30435C411.409 0.310545 418.077 6.41444 418.071 13.9114L417.908 230.552C417.902 238.048 411.225 244.142 403.024 244.136L79.3251 243.892C71.1238 243.885 64.457 237.782 64.4627 230.285ZM79.5087 0.936883C71.8368 0.931087 65.5911 6.63165 65.5858 13.6446L65.4222 230.285C65.4169 237.298 71.6545 243.008 79.3258 243.014L403.025 243.258C410.697 243.264 416.942 237.563 416.948 230.55L417.111 13.9106C417.117 6.89772 410.879 1.18772 403.208 1.18193L79.5087 0.936883Z" fill="#292A2E"/>
<path d="M65.1063 13.6427L65.0963 26.8819L417.58 27.1482L417.59 13.909C417.596 6.64275 411.156 0.747125 403.207 0.74112L79.5095 0.496591C71.5606 0.490586 65.1118 6.37648 65.1063 13.6427Z" fill="#292A2E"/>
<path d="M303.43 183.632L384.35 183.694L396.562 192.069L396.595 148.41C396.598 144.857 393.45 141.975 389.563 141.972L303.462 141.907C299.575 141.904 296.422 144.781 296.42 148.334L296.398 177.194C296.395 180.747 299.543 183.629 303.43 183.632Z" fill="#573D00"/>
<path opacity="0.11" d="M303.43 183.632L384.35 183.694L396.562 192.069L396.595 148.41C396.598 144.857 393.45 141.975 389.563 141.972L303.462 141.907C299.575 141.904 296.422 144.781 296.42 148.334L296.398 177.194C296.395 180.747 299.543 183.629 303.43 183.632Z" fill="white"/>
<path opacity="0.49" d="M303.43 183.632L384.35 183.694L396.562 192.069L396.595 148.41C396.598 144.857 393.45 141.975 389.563 141.972L303.462 141.907C299.575 141.904 296.422 144.781 296.42 148.334L296.398 177.194C296.395 180.747 299.543 183.629 303.43 183.632Z" fill="white"/>
<path d="M305.037 159.274L387.962 159.336C388.131 159.336 388.268 159.211 388.269 159.057C388.269 158.902 388.132 158.776 387.962 158.776L305.037 158.714C304.868 158.713 304.731 158.839 304.731 158.993C304.73 159.148 304.867 159.274 305.037 159.274Z" fill="white"/>
<path d="M305.043 151.31L387.968 151.373C388.137 151.373 388.274 151.248 388.275 151.093C388.275 150.938 388.138 150.813 387.968 150.813L305.043 150.75C304.874 150.75 304.737 150.875 304.737 151.03C304.736 151.185 304.873 151.31 305.043 151.31Z" fill="white"/>
<path d="M305.03 167.669L387.956 167.732C388.125 167.732 388.262 167.607 388.262 167.452C388.262 167.297 388.125 167.172 387.956 167.172L305.031 167.109C304.862 167.109 304.724 167.234 304.724 167.389C304.724 167.544 304.861 167.669 305.03 167.669Z" fill="white"/>
<path d="M305.024 176.065L354.274 176.102C354.443 176.102 354.58 175.977 354.58 175.822C354.58 175.668 354.443 175.542 354.274 175.542L305.024 175.505C304.855 175.505 304.718 175.63 304.718 175.785C304.718 175.939 304.855 176.065 305.024 176.065Z" fill="white"/>
<path d="M298.551 120.788L385.226 120.853L396.61 128.66L396.635 95.6692C396.638 92.3572 393.703 89.6703 390.08 89.6676L298.574 89.5985C294.951 89.5957 292.012 92.2781 292.01 95.5901L291.995 114.786C291.993 118.098 294.927 120.785 298.551 120.787L298.551 120.788Z" fill="#573D00"/>
<path opacity="0.11" d="M298.551 120.788L385.226 120.853L396.61 128.66L396.635 95.6692C396.638 92.3572 393.703 89.6703 390.08 89.6676L298.574 89.5985C294.951 89.5957 292.012 92.2781 292.01 95.5901L291.995 114.786C291.993 118.098 294.927 120.785 298.551 120.787L298.551 120.788Z" fill="white"/>
<path opacity="0.49" d="M298.551 120.788L385.226 120.853L396.61 128.66L396.635 95.6692C396.638 92.3572 393.703 89.6703 390.08 89.6676L298.574 89.5985C294.951 89.5957 292.012 92.2781 292.01 95.5901L291.995 114.786C291.993 118.098 294.927 120.785 298.551 120.787L298.551 120.788Z" fill="white"/>
<path d="M300.048 98.0805L388.593 98.1474C388.751 98.1475 388.878 98.0309 388.878 97.8866C388.879 97.7422 388.751 97.6255 388.593 97.6253L300.048 97.5584C299.89 97.5583 299.762 97.6749 299.762 97.8192C299.762 97.9636 299.89 98.0803 300.048 98.0805Z" fill="white"/>
<path d="M300.042 105.907L388.587 105.974C388.745 105.974 388.872 105.857 388.873 105.713C388.873 105.568 388.745 105.452 388.587 105.452L300.042 105.385C299.884 105.384 299.757 105.501 299.756 105.645C299.756 105.79 299.884 105.907 300.042 105.907Z" fill="white"/>
<path d="M300.036 113.733L357.188 113.776C357.346 113.776 357.474 113.66 357.474 113.515C357.474 113.371 357.346 113.254 357.188 113.254L300.036 113.211C299.878 113.211 299.751 113.327 299.75 113.472C299.75 113.616 299.878 113.733 300.036 113.733Z" fill="white"/>
<path d="M496.398 389.679C496.398 389.679 493.851 401.702 481.534 402.363C469.217 403.024 471.881 411.995 471.881 411.995L518.949 412.031L518.965 390.535L496.398 389.679Z" fill="#573D00"/>
<path d="M522.324 170.34C522.324 170.34 522.179 166.725 522.204 174.925C522.297 205.512 521.038 397.372 521.038 397.372L490.109 397.112L471.545 169.059L522.324 170.34Z" fill="#262626"/>
<path d="M443.584 389.639C443.584 389.639 441.037 401.662 428.719 402.323C416.402 402.984 419.066 411.955 419.066 411.955L466.135 411.991L466.151 390.495L443.584 389.639Z" fill="#573D00"/>
<path d="M437.765 172.651C437.765 172.651 433.823 277.185 434.22 282.294L437.767 396.517L468.185 397.054L473.18 278.193C473.18 278.193 476.419 245.406 485.109 214.966C489.568 199.347 492.223 183.343 493.109 167.22L437.765 172.651Z" fill="#262626"/>
<path d="M477.838 246.798L475.328 211.339C475.328 211.339 472.712 226.077 472.702 238.783C472.698 244.993 474.079 269.582 474.079 269.582L477.838 246.798Z" fill="#0A0A0A"/>
<path d="M522.659 170.337L522.76 170.343C522.76 170.343 522.689 168.56 522.659 170.337Z" fill="#333333"/>
<path d="M522.532 170.337L522.633 170.342C522.633 170.342 522.562 168.56 522.532 170.337Z" fill="#333333"/>
<path d="M353.114 85.3606C353.522 84.6298 354.354 84.2831 355.154 84.3752C355.154 84.3423 355.154 84.3084 355.176 84.2796C355.216 84.2293 355.278 84.2149 355.34 84.2186L353.957 83.3112C353.122 82.7629 352.781 81.7221 353.274 80.8973C353.786 80.0417 354.889 79.7333 355.803 80.0818C355.799 80.0638 355.812 80.0469 355.815 80.0284L355.247 79.6554C354.461 79.1395 354.122 78.181 354.528 77.3782C355.075 76.2981 356.517 75.9868 357.52 76.6452L358.831 77.5053C358.835 77.4981 358.831 77.4899 358.836 77.4832C358.842 77.4745 358.855 77.4745 358.863 77.4668C358.256 76.8415 358.177 75.8971 358.733 75.19C359.353 74.28 360.782 74.4671 361.629 75.0232L369.344 79.9029L367.966 77.7789C367.413 76.9271 367.615 75.7856 368.517 75.2365C369.479 74.6509 370.767 74.9278 371.35 75.8243L378.874 87.423C380.709 90.2523 379.75 93.9022 376.708 95.6597C373.238 97.665 368.784 97.5445 365.449 95.3557L353.798 87.7098C353.03 87.2051 352.682 86.131 353.112 85.3612L353.114 85.3606Z" fill="#FF9E85"/>
<g opacity="0.25">
<path d="M366.468 82.328C366.409 82.402 366.296 82.4193 366.213 82.3674L358.883 77.7186C358.799 77.6656 358.778 77.5603 358.836 77.4837C358.885 77.4077 359.01 77.3883 359.093 77.4413L366.424 82.0901C366.508 82.1431 366.528 82.2484 366.47 82.3249L366.468 82.328L366.468 82.328Z" fill="#0C0C0C"/>
</g>
<g opacity="0.25">
<path d="M364.315 85.3393C364.256 85.4132 364.143 85.4306 364.06 85.3786L355.88 80.1902C355.796 80.1373 355.775 80.0319 355.833 79.9554C355.887 79.8856 356.006 79.86 356.09 79.9129L364.271 85.1014C364.354 85.1543 364.375 85.2597 364.317 85.3362L364.315 85.3393Z" fill="#0C0C0C"/>
</g>
<g opacity="0.25">
<path d="M362.003 88.6136C361.944 88.6876 361.831 88.7049 361.748 88.653L355.222 84.5145C355.138 84.4615 355.118 84.3562 355.176 84.2796C355.236 84.2037 355.349 84.1842 355.432 84.2372L361.958 88.3757C362.042 88.4287 362.063 88.534 362.005 88.6105L362.003 88.6136Z" fill="#0C0C0C"/>
</g>
<path d="M383.322 84.786L405.419 119.244L432.438 86.8989L454.841 105.391L416.523 150.685L416.272 151.007C414.936 152.682 413.17 154.11 411.026 155.139C403.544 158.729 394.294 156.094 390.366 149.254L358.947 97.1544L383.322 84.786Z" fill="#573D00"/>
<path d="M407.584 123.387C407.628 123.387 407.671 123.378 407.713 123.359C407.851 123.295 407.906 123.14 407.835 123.014L405.67 119.127C405.6 119.001 405.429 118.951 405.292 119.015C405.153 119.079 405.098 119.234 405.169 119.36L407.334 123.247C407.384 123.336 407.483 123.387 407.584 123.387L407.584 123.387Z" fill="#0C0C0C"/>
<path d="M505.709 42.0863C505.709 42.0863 506.739 56.8373 509.784 61.2203C518.552 73.8378 521.222 83.7711 512.682 91.3207C504.142 98.8707 449.106 99.5151 444.731 82.3857C441.049 67.9645 448.564 66.3358 450.254 54.3926C451.019 48.9885 453.166 37.652 453.166 37.652" fill="#0A0A0A"/>
<path d="M458.745 79.6582C458.84 79.6469 459.882 95.6394 480.206 94.2603C494.277 93.3075 499.303 79.6662 499.626 79.6664C498.109 79.3704 495.555 78.9399 494.882 78.6111C492.667 77.5212 489.927 76.3867 489.216 72.4535C488.806 70.1863 489.513 58.5908 489.3 56.297L467.699 60.6871C467.998 65.5309 470.101 76.7617 462.697 78.743C461.465 79.0709 460.138 79.372 458.745 79.6582Z" fill="#FF9E85"/>
<path opacity="0.22" d="M467.386 74.1577C467.692 73.2655 467.875 72.4892 468.038 71.0944C468.329 68.5996 468.177 66.3053 467.902 63.9678C472.265 63.4404 476.455 61.766 479.842 59.1964C480.242 60.5506 482.766 65.5503 482.154 66.8364C480.998 69.2678 475.249 74.1637 467.386 74.1577L467.386 74.1577Z" fill="#0C0C0C"/>
<path d="M470.252 69.1266C478.775 69.7984 487.917 66.5684 490.075 56.1814L493.861 46.815C496.019 36.4281 491.801 26.9709 481.102 25.1116C470.403 23.2523 461.806 26.4791 459.647 36.8661C459.647 36.8661 458.315 42.8088 458.109 44.8191C457.332 52.4003 457.32 68.1067 470.252 69.1261L470.252 69.1266Z" fill="#FF9E85"/>
<path d="M459.898 42.9091C459.937 43.2462 461.325 43.2118 463.171 42.9481C465.018 42.6843 466.653 42.3706 466.585 41.9528C466.499 41.4256 464.925 41.2133 463.078 41.4775C461.232 41.7417 459.836 42.3788 459.898 42.9091Z" fill="#0A0A0A"/>
<path d="M502.419 50.0888L490.369 53.1178C483.107 50.4251 483.377 34.2837 483.377 34.2837C483.377 34.2837 474.547 42.1387 453.167 37.6514C453.167 37.6514 457.474 11.2606 489.06 19.2109C499.245 21.7742 506.548 32.0296 505.628 44.5699C504.984 53.358 502.42 50.0883 502.42 50.0883L502.419 50.0888Z" fill="#0A0A0A"/>
<path d="M490.591 59.2369C493.842 59.802 497.191 58.7481 498.108 54.272C498.717 51.2986 496.079 49.0394 492.828 48.4744L490.738 50.1745L487.795 58.7513L490.591 59.2369Z" fill="#FF9E85"/>
<path d="M461.898 47.1999C462.552 47.2004 463.083 46.7161 463.083 46.1182C463.084 45.5203 462.554 45.0352 461.9 45.0347C461.246 45.0342 460.715 45.5185 460.715 46.1164C460.714 46.7143 461.244 47.1994 461.898 47.1999Z" fill="#0A0A0A"/>
<path d="M468.608 54.7018C468.848 54.702 469.054 54.5367 469.079 54.3143C469.107 54.0764 468.918 53.863 468.657 53.8382L466.148 53.5963L467.697 49.0154C467.774 48.7868 467.633 48.5442 467.383 48.4736C467.133 48.403 466.868 48.5308 466.791 48.7593L465.073 53.8437C465.031 53.9675 465.053 54.1021 465.131 54.2101C465.209 54.318 465.336 54.3885 465.477 54.4025L468.559 54.6992C468.576 54.7008 468.592 54.7018 468.608 54.7018Z" fill="#0A0A0A"/>
<path d="M470.688 59.9417C474.982 59.9449 476.262 57.5731 476.32 57.4622C476.431 57.246 476.33 56.988 476.094 56.8855C475.859 56.7836 475.577 56.8749 475.464 57.0896C475.411 57.1902 474.097 59.5193 469.371 58.9994C469.106 58.9694 468.875 59.1403 468.844 59.3777C468.813 59.615 468.998 59.831 469.258 59.8594C469.767 59.9153 470.243 59.9413 470.687 59.9417L470.688 59.9417Z" fill="#0A0A0A"/>
<path d="M474.286 42.6934C474.172 43.016 475.455 43.4994 477.26 43.9432C479.065 44.3869 480.699 44.7067 480.822 44.2999C480.978 43.7862 479.633 43.0083 477.828 42.5646C476.023 42.1208 474.465 42.1864 474.286 42.6934Z" fill="#0A0A0A"/>
<path d="M474.126 47.9957C474.781 47.9962 475.312 47.5117 475.312 46.9135C475.312 46.3153 474.782 45.83 474.128 45.8295C473.474 45.829 472.943 46.3135 472.942 46.9117C472.942 47.5099 473.472 47.9952 474.126 47.9957Z" fill="#0A0A0A"/>
<path d="M488.678 44.5098C488.69 45.4213 486.174 48.6949 486.521 49.5491C487.07 50.8962 489.362 53.0693 490.368 53.1184C492.14 53.2045 490.607 50.345 492.769 48.7816C493.116 48.7551 493.47 48.7513 493.828 48.7947C495.267 48.952 496.506 49.6091 497.364 50.5536L497.219 46.422" fill="#0A0A0A"/>
<path d="M433.328 114.623C433.961 121.474 437.032 164.213 437.638 172.651L522.16 172.715C522.643 165.105 524.812 131.831 526.634 116.95C528.373 102.751 531.77 95.6443 529.287 91.4441C525.231 84.5797 514.135 80.6063 506.568 79.6639C501.947 79.0886 494.997 78.6733 494.997 78.6733C494.997 78.6733 494.4 89.5558 480.367 90.1504C461.263 90.9596 462.548 78.6488 462.454 78.6487C459.359 78.6464 441.679 80.4237 437.352 82.7638C425.562 89.1348 431.985 100.105 433.328 114.623L433.328 114.623Z" fill="#573D00"/>
<path d="M432.628 148.253C432.69 147.434 433.306 146.817 434.08 146.615C434.066 146.585 434.052 146.553 434.06 146.519C434.075 146.458 434.126 146.423 434.185 146.404L432.523 146.066C431.52 145.861 430.759 145.026 430.858 144.09C430.961 143.12 431.843 142.44 432.833 142.433C432.822 142.417 432.827 142.397 432.822 142.379L432.139 142.24C431.195 142.048 430.471 141.287 430.5 140.403C430.539 139.214 431.731 138.41 432.936 138.655L434.512 138.976C434.512 138.968 434.505 138.962 434.507 138.954C434.508 138.944 434.521 138.939 434.525 138.929C433.699 138.572 433.22 137.732 433.427 136.881C433.606 135.822 435 135.482 436.019 135.689L445.21 137.408L443.03 135.948C442.156 135.364 441.852 134.241 442.445 133.412C443.078 132.529 444.382 132.32 445.303 132.937L457.204 140.904C460.107 142.847 460.793 146.549 458.75 149.257C456.421 152.346 452.272 153.834 448.265 153.018L434.267 150.167C433.343 149.979 432.562 149.115 432.627 148.253L432.628 148.253Z" fill="#FF9E85"/>
<g opacity="0.25">
<path d="M443.607 140.671C443.584 140.76 443.488 140.817 443.389 140.798L434.651 139.153C434.551 139.134 434.487 139.045 434.508 138.954C434.52 138.867 434.626 138.804 434.726 138.823L443.464 140.468C443.564 140.487 443.628 140.576 443.608 140.667L443.607 140.671Z" fill="#0C0C0C"/>
</g>
<g opacity="0.25">
<path d="M442.92 144.214C442.897 144.303 442.801 144.36 442.703 144.342L432.951 142.506C432.851 142.487 432.787 142.398 432.807 142.307C432.826 142.224 432.925 142.157 433.025 142.175L442.777 144.011C442.877 144.03 442.941 144.119 442.921 144.21L442.92 144.214Z" fill="#0C0C0C"/>
</g>
<g opacity="0.25">
<path d="M442.2 148.055C442.177 148.144 442.081 148.201 441.983 148.182L434.204 146.718C434.104 146.699 434.04 146.61 434.06 146.519C434.083 146.427 434.178 146.369 434.278 146.388L442.057 147.852C442.157 147.871 442.221 147.96 442.201 148.051L442.2 148.055Z" fill="#0C0C0C"/>
</g>
<path d="M449.127 158.085L525.08 170.691C525.639 170.747 526.196 170.775 526.751 170.775C530.975 170.778 535.045 169.195 537.978 166.357C541.298 163.145 542.779 158.697 541.981 154.34L531.39 96.5508C529.981 88.8668 522.027 83.6822 513.62 84.967C505.214 86.2534 499.541 93.5251 500.95 101.209L508.171 140.991L452.484 134.555L449.127 158.086L449.127 158.085Z" fill="#573D00"/>
<path d="M525.081 170.948C525.214 170.948 525.332 170.861 525.357 170.737C525.385 170.598 525.283 170.464 525.131 170.438L449.44 157.876L452.727 134.842L508.136 141.245C508.228 141.255 508.312 141.227 508.374 141.169C508.436 141.11 508.463 141.029 508.449 140.948L503.858 115.523C503.833 115.384 503.69 115.285 503.535 115.311C503.383 115.334 503.279 115.467 503.304 115.607L507.834 140.691L452.52 134.3C452.37 134.282 452.227 134.381 452.206 134.521L448.849 158.052C448.83 158.188 448.93 158.314 449.077 158.338L525.031 170.944C525.048 170.947 525.064 170.949 525.081 170.949L525.081 170.948Z" fill="#0C0C0C"/>
<path d="M508.219 140.738L508.129 141.246L513.015 141.965L513.105 141.457L508.219 140.738Z" fill="#0C0C0C"/>
<path d="M433.97 119.071L433.409 119.1L434.076 129.979L434.637 129.95L433.97 119.071Z" fill="#0C0C0C"/>
<path d="M364.393 69.7552L248.83 69.6679L231.37 81.6022L231.417 19.2526C231.421 14.1788 235.924 10.0692 241.474 10.0734L364.438 10.1663C369.989 10.1705 374.485 14.2869 374.482 19.3607L374.45 60.576C374.447 65.6498 369.944 69.7594 364.393 69.7552Z" fill="#573D00"/>
<path opacity="0.11" d="M364.393 69.7552L248.83 69.6679L231.37 81.6022L231.417 19.2526C231.421 14.1788 235.924 10.0692 241.474 10.0734L364.438 10.1663C369.989 10.1705 374.485 14.2869 374.482 19.3607L374.45 60.576C374.447 65.6498 369.944 69.7594 364.393 69.7552Z" fill="white"/>
<path d="M243.723 34.8749L362.152 34.9643C362.393 34.9645 362.589 34.7859 362.589 34.5649C362.589 34.344 362.394 34.1651 362.152 34.1649L243.723 34.0754C243.482 34.0752 243.286 34.2539 243.286 34.4748C243.286 34.6957 243.481 34.8747 243.723 34.8749Z" fill="white"/>
<path d="M243.731 23.5018L362.16 23.5913C362.402 23.5915 362.598 23.4128 362.598 23.1919C362.598 22.971 362.403 22.792 362.161 22.7918L243.732 22.7024C243.49 22.7022 243.295 22.8808 243.294 23.1018C243.294 23.3227 243.49 23.5017 243.731 23.5018Z" fill="white"/>
<path d="M243.714 46.8645L362.143 46.954C362.384 46.9542 362.58 46.7755 362.58 46.5546C362.58 46.3336 362.385 46.1547 362.143 46.1545L243.714 46.065C243.473 46.0648 243.277 46.2435 243.277 46.4644C243.277 46.6854 243.472 46.8643 243.714 46.8645Z" fill="white"/>
<path d="M243.705 58.8546L314.04 58.9078C314.282 58.9079 314.477 58.7293 314.478 58.5083C314.478 58.2874 314.282 58.1085 314.041 58.1083L243.705 58.0551C243.464 58.055 243.268 58.2336 243.268 58.4545C243.268 58.6755 243.463 58.8544 243.705 58.8546Z" fill="white"/>
<path d="M70.7325 344.506C70.5886 344.506 70.4447 344.456 70.3352 344.355C69.5437 343.631 68.2627 330.348 64.8155 290.801C63.4051 274.619 62.0727 259.334 61.0989 250.046C61.0291 249.382 60.7481 249.305 60.6554 249.279C59.3134 248.908 55.2282 251.848 52.947 254.423C52.7518 254.643 52.3977 254.678 52.1561 254.499C51.9151 254.32 51.8777 253.996 52.0729 253.776C53.5817 252.073 58.4977 247.61 60.9793 248.295C61.4801 248.433 62.1009 248.831 62.2181 249.947C63.1924 259.244 64.5248 274.533 65.9358 290.719C68.0305 314.751 70.4039 341.977 71.1889 343.693C71.3473 343.894 71.3274 344.175 71.1294 344.356C71.0197 344.456 70.8764 344.506 70.7325 344.506Z" fill="#494949"/>
<path d="M59.6427 267.089C68.975 260.262 72.0744 249.627 66.5655 243.335C61.0565 237.043 49.0254 237.477 39.6931 244.304C30.3608 251.131 27.2614 261.766 32.7704 268.058C38.2793 274.35 50.3105 273.916 59.6427 267.089Z" fill="#E2C275"/>
<path opacity="0.2" d="M59.6427 267.089C68.975 260.262 72.0744 249.627 66.5655 243.335C61.0565 237.043 49.0254 237.477 39.6931 244.304C30.3608 251.131 27.2614 261.766 32.7704 268.058C38.2793 274.35 50.3105 273.916 59.6427 267.089Z" fill="white"/>
<path d="M35.3828 269.658C35.3198 269.658 35.2563 269.638 35.2035 269.599C35.0844 269.508 35.0677 269.347 35.1673 269.237L61.7709 239.956C61.8699 239.847 62.047 239.831 62.1666 239.922C62.2857 240.013 62.3025 240.175 62.2029 240.284L35.5992 269.566C35.5436 269.627 35.4637 269.658 35.3828 269.658Z" fill="white"/>
<path d="M76.5345 338.229C76.4732 338.229 76.4108 338.219 76.3496 338.2C76.0568 338.107 75.9019 337.814 76.0038 337.545L86.0085 311.304C86.6089 309.73 88.0262 308.556 89.7999 308.167C91.5741 307.776 93.4197 308.232 94.7386 309.385L100.014 313.998C100.238 314.194 100.246 314.52 100.031 314.725C99.8162 314.93 99.4604 314.937 99.2363 314.741L93.9612 310.128C92.9204 309.217 91.4637 308.857 90.0628 309.165C88.6629 309.473 87.5443 310.399 87.07 311.642L77.0654 337.883C76.9843 338.095 76.7672 338.228 76.5345 338.228L76.5345 338.229Z" fill="#494949"/>
<path d="M114.75 328.541C121.666 323.545 121.264 312.545 113.851 303.972C106.439 295.398 94.8232 292.498 87.9072 297.494C80.9911 302.491 81.3936 313.491 88.8061 322.064C96.2186 330.638 107.834 333.538 114.75 328.541Z" fill="#E2C275"/>
<path d="M66.1971 342.829C65.9431 342.828 65.7127 342.67 65.6511 342.434L48.9432 278.378C48.7067 277.47 47.9725 276.795 46.9806 276.573C45.9887 276.352 44.9964 276.64 44.3281 277.345L39.159 282.797C38.9559 283.011 38.6001 283.034 38.3659 282.849C38.1316 282.663 38.106 282.338 38.3091 282.124L43.4782 276.672C44.4148 275.684 45.8586 275.263 47.2478 275.574C48.6365 275.885 49.7054 276.868 50.0366 278.139L66.7445 342.195C66.8162 342.471 66.63 342.748 66.3281 342.814C66.2842 342.824 66.2404 342.828 66.1971 342.828L66.1971 342.829Z" fill="#494949"/>
<path d="M60.0498 297.042C62.0948 286.276 56.7115 276.431 48.0259 275.051C39.3403 273.671 30.6413 281.28 28.5963 292.046C26.5513 302.811 31.9345 312.657 40.6202 314.037C49.3058 315.416 58.0047 307.808 60.0498 297.042Z" fill="#E2C275"/>
<path d="M70.733 344.506C70.71 344.506 70.6869 344.505 70.6633 344.502C70.3553 344.467 70.1363 344.211 70.1742 343.929L80.934 264.525C81.1771 262.734 82.499 261.291 84.3852 260.758C86.2709 260.226 88.2541 260.736 89.5593 262.09L101.78 274.76C101.985 274.973 101.962 275.298 101.73 275.486C101.497 275.674 101.142 275.653 100.937 275.441L88.7163 262.77C87.707 261.723 86.1756 261.33 84.7172 261.741C83.2595 262.152 82.2373 263.267 82.0502 264.651L71.2904 344.056C71.2553 344.316 71.0124 344.507 70.733 344.507L70.733 344.506Z" fill="#494949"/>
<path d="M114.318 281.806C118.59 274.758 113.577 264.75 103.121 259.453C92.6649 254.157 80.7251 255.576 76.4528 262.625C72.1804 269.673 77.1933 279.681 87.6495 284.977C98.1056 290.274 110.045 288.855 114.318 281.806Z" fill="#E2C275"/>
<path opacity="0.2" d="M114.75 328.541C121.666 323.545 121.264 312.545 113.851 303.972C106.439 295.398 94.8232 292.498 87.9072 297.494C80.9911 302.491 81.3936 313.491 88.8061 322.064C96.2186 330.638 107.834 333.538 114.75 328.541Z" fill="white"/>
<path opacity="0.5" d="M60.0498 297.042C62.0948 286.276 56.7115 276.431 48.0259 275.051C39.3403 273.671 30.6413 281.28 28.5963 292.046C26.5513 302.811 31.9345 312.657 40.6202 314.037C49.3058 315.416 58.0047 307.808 60.0498 297.042Z" fill="white"/>
<path opacity="0.5" d="M114.318 281.806C118.59 274.758 113.577 264.75 103.121 259.453C92.6649 254.157 80.7251 255.576 76.4528 262.625C72.1804 269.673 77.1933 279.681 87.6495 284.977C98.1056 290.274 110.045 288.855 114.318 281.806Z" fill="white"/>
<path d="M84.3672 411.897L56.9954 411.876L52.5204 331.82L88.9631 331.848L84.3672 411.897Z" fill="#292A2E"/>
<path opacity="0.3" d="M84.3672 411.897L56.9954 411.876L52.5204 331.82L88.9631 331.848L84.3672 411.897Z" fill="white"/>
<path d="M114.752 328.797C114.668 328.797 114.586 328.763 114.531 328.7L87.6871 297.653C87.5911 297.541 87.6115 297.38 87.7335 297.292C87.8561 297.203 88.0326 297.223 88.1286 297.334L114.972 328.381C115.068 328.492 115.048 328.654 114.926 328.742C114.874 328.779 114.812 328.797 114.752 328.797Z" fill="white"/>
<path d="M112.529 284.291C112.472 284.291 112.413 284.275 112.364 284.242L78.0001 261.268C77.8748 261.184 77.8474 261.023 77.9391 260.908C78.0308 260.794 78.2068 260.769 78.332 260.853L112.696 283.827C112.821 283.91 112.848 284.071 112.757 284.186C112.702 284.255 112.616 284.291 112.53 284.291L112.529 284.291Z" fill="white"/>
<path d="M39.2256 313.701C39.2014 313.701 39.1773 313.699 39.1531 313.692C39.003 313.656 38.9143 313.515 38.9544 313.378L49.9276 275.903C49.9676 275.765 50.1245 275.685 50.2717 275.721C50.4217 275.758 50.5104 275.898 50.4704 276.036L39.4972 313.511C39.4634 313.626 39.3493 313.701 39.2256 313.701Z" fill="white"/>
<path opacity="0.2" d="M157.29 196.132C195.416 196.161 226.344 167.932 226.37 133.081C226.397 98.2296 195.511 69.9539 157.385 69.9251C119.259 69.8963 88.3308 98.1253 88.3045 132.976C88.2782 167.827 119.164 196.103 157.29 196.132Z" fill="#573D00"/>
<path d="M91.0648 198.611C85.2317 187.102 84.4625 174.144 88.9002 162.123C94.6345 146.588 108.393 134.708 125.704 130.344L130.279 145.506C118.483 148.48 109.109 156.572 105.203 167.152C102.181 175.339 102.705 184.164 106.677 192.001L91.0653 198.611L91.0648 198.611Z" fill="#573D00"/>
<path d="M91.9489 219.392C90.0693 219.39 88.2573 218.447 87.3469 216.81C82.2832 207.704 86.2678 196.53 96.2292 191.902C106.19 187.274 118.415 190.919 123.479 200.025C124.771 202.348 123.758 205.188 121.217 206.369C118.677 207.549 115.568 206.624 114.276 204.301C113.073 202.136 111.02 200.53 108.495 199.777C105.969 199.024 103.275 199.215 100.908 200.316C96.0205 202.586 94.0659 208.068 96.5503 212.536C97.8419 214.859 96.8291 217.699 94.2882 218.88C93.5381 219.228 92.7376 219.393 91.9495 219.393L91.9489 219.392Z" fill="#292A2E"/>
<path d="M224.701 153.26C215.161 153.253 205.869 150.952 197.582 146.514L206.278 132.944C212.823 136.449 220.294 137.995 227.887 137.412C237.307 136.689 245.955 132.74 252.239 126.292L265.087 136.755C255.859 146.224 243.159 152.024 229.327 153.085C227.781 153.203 226.237 153.262 224.701 153.261L224.701 153.26Z" fill="#573D00"/>
<path d="M269.167 139.348C264.471 139.344 259.962 137.864 256.297 135.092C252.127 131.937 249.55 127.486 249.041 122.56C248.532 117.633 250.153 112.821 253.603 109.009C255.42 107.002 258.675 106.721 260.871 108.382C263.067 110.044 263.374 113.018 261.557 115.026C258.062 118.887 258.655 124.627 262.879 127.822C264.925 129.37 267.507 130.099 270.152 129.869C272.796 129.641 275.185 128.486 276.878 126.616C278.695 124.608 281.949 124.328 284.145 125.989C286.341 127.651 286.649 130.625 284.832 132.633C281.381 136.444 276.512 138.8 271.123 139.264C270.469 139.321 269.816 139.348 269.168 139.347L269.167 139.348Z" fill="#292A2E"/>
<path d="M114.149 131.161L125.51 190.138C128.542 205.875 143.492 217.355 160.972 217.368C177.987 217.381 192.691 206.513 196.238 191.302L210.247 131.234L114.149 131.161L114.149 131.161Z" fill="#573D00"/>
<path d="M162.188 144.183C188.725 144.203 210.242 138.406 210.247 131.234C210.252 124.062 188.745 118.232 162.208 118.211C135.671 118.191 114.154 123.989 114.149 131.161C114.143 138.333 135.651 144.163 162.188 144.183Z" fill="#292A2E"/>
<path d="M209.174 96.3779C209.16 115.471 188.133 124.642 162.203 124.622C136.274 124.603 115.261 115.4 115.276 96.307C115.29 77.214 136.326 55.4611 162.256 55.4807C188.185 55.5002 209.188 77.285 209.174 96.3779Z" fill="#573D00"/>
<path d="M187.901 73.1924L161.195 73.1722C152.824 73.1659 146.034 79.3637 146.028 87.0155L146.028 87.016C146.022 94.6678 152.803 100.876 161.174 100.882L187.88 100.902C196.251 100.909 203.041 94.7108 203.047 87.0591L203.047 87.0586C203.053 79.4068 196.272 73.1987 187.901 73.1924Z" fill="white"/>
<path d="M173.738 92.0732C172.787 92.0725 172.018 91.368 172.019 90.4991C172.021 87.5463 169.395 85.1423 166.165 85.1398C162.935 85.1374 160.305 87.5374 160.303 90.4903C160.302 91.3591 159.532 92.0624 158.581 92.0617C157.631 92.061 156.861 91.3565 156.862 90.4877C156.865 85.8008 161.04 81.9905 166.167 81.9943C171.295 81.9982 175.464 85.8148 175.46 90.5017C175.459 91.3706 174.689 92.0739 173.738 92.0732L173.738 92.0732Z" fill="#292A2E"/>
<path d="M197.139 92.0909C196.189 92.0902 195.419 91.3857 195.42 90.5168C195.422 87.564 192.796 85.16 189.566 85.1575C186.337 85.1551 183.706 87.5551 183.704 90.508C183.704 91.3768 182.933 92.0801 181.982 92.0794C181.032 92.0787 180.262 91.3742 180.263 90.5054C180.267 85.8185 184.441 82.0082 189.569 82.012C194.696 82.0159 198.865 85.8325 198.861 90.5194C198.861 91.3883 198.09 92.0916 197.139 92.0909Z" fill="#292A2E"/>
<path d="M162.255 40.703L160.17 40.7947L161.184 60.0021L163.269 59.9104L162.255 40.703Z" fill="#573D00"/>
<path d="M161.285 45.6586C163.392 45.6602 165.102 44.1 165.103 42.1738C165.105 40.2476 163.398 38.6848 161.29 38.6832C159.183 38.6816 157.474 40.2418 157.472 42.168C157.471 44.0942 159.178 45.657 161.285 45.6586Z" fill="#292A2E"/>
<path d="M390.239 206.144L257.423 206.043C251.252 206.039 246.247 210.607 246.243 216.247C246.239 221.887 251.237 226.463 257.407 226.467L390.224 226.568C396.394 226.572 401.399 222.004 401.403 216.364C401.407 210.724 396.409 206.148 390.239 206.144Z" fill="white"/>
<path d="M390.223 226.953L257.406 226.853C251.014 226.848 245.816 222.09 245.821 216.247C245.825 210.403 251.03 205.653 257.422 205.658L390.239 205.758C396.632 205.763 401.829 210.521 401.824 216.365C401.82 222.208 396.616 226.958 390.223 226.953ZM257.422 206.429C251.494 206.424 246.668 210.829 246.664 216.248C246.66 221.666 251.479 226.078 257.407 226.082L390.224 226.182C396.152 226.187 400.977 221.783 400.981 216.364C400.985 210.946 396.166 206.533 390.239 206.529L257.422 206.429Z" fill="#292A2E"/>
<path d="M532.413 412.402L48.7855 412.037C48.5674 412.036 48.391 411.875 48.3911 411.676C48.3913 411.476 48.5679 411.315 48.786 411.315L532.413 411.681C532.632 411.681 532.808 411.842 532.808 412.042C532.808 412.241 532.632 412.402 532.413 412.402Z" fill="#292A2E"/>
</svg>
