<svg width="364" height="395" viewBox="0 0 364 395" fill="none" xmlns="http://www.w3.org/2000/svg">
<g clip-path="url(#clip0_85_456)">
<mask id="mask0_85_456" style="mask-type:luminance" maskUnits="userSpaceOnUse" x="0" y="0" width="364" height="395">
<path d="M0.437073 0H364V394.864H0.437073V0Z" fill="white"/>
</mask>
<g mask="url(#mask0_85_456)">
<path d="M326.553 251.134C326.553 251.134 330.359 233.324 333.413 220.415C329.282 219.949 325.862 220.194 321.74 219.706C321.66 221.612 320.91 223.495 319.961 225.184C318.73 225.208 317.498 225.174 316.11 224.918C307.409 224.27 306.506 224.714 297.781 224.801C297.151 231.15 297.796 237.55 298.439 243.898C298.458 244.091 298.482 244.296 298.598 244.451C298.758 244.667 299.046 244.733 299.31 244.784C300.78 245.069 302.249 245.354 303.719 245.639C313.041 247.447 326.553 251.134 326.553 251.134V251.134Z" fill="white" stroke="#010101" stroke-width="1.5" stroke-linecap="round" stroke-linejoin="round"/>
<path d="M72.7684 33.6279C73.6506 47.5165 73.851 61.4486 73.3684 75.3573C84.1061 76.4385 94.9161 76.8027 105.702 76.4445C106.887 64.557 105.477 45.0929 106.372 36.1231C106.456 35.2835 81.9683 33.5161 72.7684 33.6279Z" fill="white" stroke="#010101" stroke-width="1.5" stroke-linecap="round" stroke-linejoin="round"/>
<path d="M66.8117 92.91C67.4921 92.3784 68.4339 93.0828 68.9789 93.7522C70.815 96.0051 70.9531 96.3037 72.2978 98.8792C70.5013 95.3068 70.1742 93.8741 68.3783 90.3024C68.1846 89.9167 67.9855 89.4842 68.1054 89.0698C68.2938 88.4184 69.1988 88.2256 69.8041 88.5322C70.4095 88.8389 70.7768 89.4608 71.1106 90.0513C72.8897 93.1932 73.4347 94.5637 75.2058 97.7096C73.5641 94.4981 72.9346 93.1952 72.2898 91.8201C71.1649 89.4193 69.6928 86.6021 71.549 86.0022C72.3555 85.8462 72.9796 86.6717 73.3751 87.3907C75.3566 90.9933 76.2831 93.4905 77.4609 96.5427C76.826 94.7498 75.9103 91.9493 74.8036 89.2727C74.5489 88.6567 74.2894 88.0047 74.3779 87.3439C74.4671 86.6831 75.0449 86.039 75.7059 86.1301C76.3514 86.2191 76.7141 86.9 76.9722 87.4972C78.5683 91.1874 79.5798 93.7281 80.9192 96.9136C80.6437 95.517 80.2951 91.3829 81.7229 91.0502C82.7258 90.8165 82.9524 91.8141 83.2239 92.746C84.5009 97.1332 85.4575 99.8165 87.1494 105.752C87.1494 105.752 102.086 130.92 110.827 144.998C115.164 144.447 123.427 143.343 127.798 143.244C133.036 143.127 132.3 155.493 130.377 164.12C130.267 164.615 130.134 165.129 129.79 165.5C129.384 165.937 128.765 166.093 128.183 166.223C121.585 167.707 114.878 168.701 108.133 169.195C105.881 169.359 103.509 169.447 101.484 168.449C98.6768 167.068 97.2194 163.981 95.9679 161.116C93.1618 154.693 79.7568 121.391 75.6187 109.997C72.6846 104.917 69.9556 100.689 66.8981 95.0959C66.5154 94.3963 66.1836 93.4008 66.8123 92.9094L66.8117 92.91Z" fill="white" stroke="#010101" stroke-width="1.5" stroke-linecap="round" stroke-linejoin="round"/>
<path d="M232.245 196.882C234.649 201.437 238.005 205.464 241.48 209.267C251.346 203.384 260.692 198.18 270.246 191.803C273.798 189.431 277.081 187.068 280.773 185.391L280.772 185.388C285.942 182.743 292.744 179.923 298.485 177.316C300.323 176.481 300.743 178.209 300.065 178.989C298.471 180.822 297.215 181.401 294.526 182.662C299.396 181.045 301.42 180.451 306.29 178.833C306.905 178.628 307.651 178.446 308.134 178.862C308.63 179.288 308.518 180.139 308.079 180.641C307.64 181.143 306.982 181.383 306.355 181.602C303.629 182.557 300.98 183.527 299.223 184.244C302.277 183.094 304.984 182.214 308.97 181.292C309.765 181.108 310.924 180.957 311.327 181.654C312.073 183.417 308.591 184.377 306.061 185.136C304.612 185.57 303.226 185.967 299.754 186.881C303.261 186.106 304.642 185.602 308.151 184.835C308.81 184.691 309.515 184.55 310.135 184.793C310.756 185.036 311.195 185.829 310.827 186.399C310.593 186.761 310.139 186.9 309.725 187.012C305.881 188.05 304.594 188.756 300.75 189.794C303.554 189.083 303.867 188.986 306.745 188.85C307.599 188.809 308.736 189.036 308.776 189.888C308.812 190.675 307.85 191.088 307.077 191.269C299.473 193.049 299.593 192.56 291.988 194.339C291.988 194.339 260.954 220.915 248.255 228.017C244.699 230.005 240.94 231.875 236.88 232.227C232.819 232.577 228.364 231.098 225.729 227.673C223.625 225.528 221.521 223.384 219.418 221.24C217.378 219.161 213.99 215.104 213.573 212.225C213.142 209.244 228.503 195.75 232.245 196.882Z" fill="white" stroke="#010101" stroke-width="1.5" stroke-linecap="round" stroke-linejoin="round"/>
<path d="M121.957 331.061C119.348 331.071 114.238 330.726 111.629 330.736C110.985 330.739 110.319 330.746 109.735 331.015C109.351 331.192 109.027 331.471 108.707 331.747C103.39 336.34 99.0623 342.411 93.6633 346.947C93.0318 347.478 92.0752 346.991 92.1329 346.169C94.3785 314.239 95.2694 312.043 96.4519 311.737C98.3698 311.241 100.308 310.822 102.259 310.482C100.341 309.187 99.016 308.421 97.0975 307.127C95.9465 306.349 95.7963 307.03 98.5133 296.079C98.6433 295.553 99.1823 295.234 99.7038 295.382C105.459 297.008 120.412 300.19 122.895 301.239C123.172 301.356 123.462 301.496 123.615 301.755C123.763 302.006 123.749 302.318 123.732 302.609C123.117 312.637 123.579 321.244 121.957 331.061Z" fill="#010101" stroke="#010101" stroke-width="1.5" stroke-linecap="round" stroke-linejoin="round"/>
<path d="M175.268 362.53C174.312 364.955 173.356 367.38 172.401 369.805C172.165 370.403 171.925 371.024 171.959 371.666C171.982 372.087 172.122 372.491 172.26 372.889C174.565 379.522 176.433 386.447 178.656 393.135C178.916 393.917 178.109 394.624 177.366 394.267C148.493 380.37 146.781 378.732 146.934 377.522C147.182 375.559 147.509 373.606 147.915 371.669C146 372.97 144.798 373.916 142.884 375.217C141.735 375.998 142.312 376.389 133.13 369.816C132.69 369.501 132.593 368.883 132.922 368.454C136.564 363.716 145.056 351.018 146.951 349.102C147.162 348.889 147.399 348.671 147.696 348.626C147.985 348.581 148.27 348.709 148.534 348.833C157.635 353.113 166.736 357.393 175.268 362.53Z" fill="#010101" stroke="#010101" stroke-width="1.5" stroke-linecap="round" stroke-linejoin="round"/>
<path d="M191.715 250.358C201.673 256.048 212.172 262.245 220.742 269.863C223.9 272.669 226.864 275.746 229.098 279.33C234.631 288.205 235.121 299.79 231.169 309.47C227.216 319.151 219.128 326.888 209.626 331.274C205.581 333.141 201.297 334.437 196.994 335.592C172.205 342.247 146.214 344.407 120.629 342.569C120.645 339.113 120.379 335.655 119.839 330.683C118.359 320.376 117.604 309.559 119.158 293.211C135.417 294.926 151.854 296.641 168.069 294.548C172.54 293.971 177.299 292.933 180.36 289.627C182.023 287.831 183.014 285.53 183.975 283.279C188.273 273.204 192.205 262.07 191.715 250.358H191.715Z" fill="#75CBE2" stroke="#010101" stroke-width="1.5" stroke-linecap="round" stroke-linejoin="round"/>
<path d="M170.127 300.706C153.4 303.073 136.291 302.735 119.67 299.711" stroke="#010101" stroke-width="1.5" stroke-linecap="round" stroke-linejoin="round"/>
<path d="M37.4919 247.354C33.6676 240.218 27.5439 234.333 20.2559 230.793C17.8694 229.634 15.1311 228.709 12.5985 229.501C10.0351 230.302 8.25397 232.757 7.57893 235.354C6.90388 237.951 7.16196 240.692 7.53736 243.349C9.42908 256.738 14.149 269.551 19.1605 282.113C31.1913 282.151 52.0888 283.399 54.0295 283.268C54.8842 283.21 41.6763 255.838 37.4913 247.354L37.4919 247.354Z" fill="#55D087" stroke="#010101" stroke-width="1.5" stroke-linecap="round" stroke-linejoin="round"/>
<path d="M217.935 115.987L218.776 133.723L208.987 156.872L202.233 170.407L183.634 183.848L159.003 175.448L160.081 153.792L179.522 121.122L198.121 111.694L217.935 115.987Z" fill="white" stroke="#010101" stroke-width="1.5" stroke-linecap="round" stroke-linejoin="round"/>
<path d="M224.221 136.855C224.369 137.214 224.621 137.526 224.745 137.895C224.869 138.263 224.819 138.741 224.485 138.94C224.34 139.027 223.698 139.071 223.511 140.011C223.418 140.475 224.031 140.985 224.031 141.458C224.031 142.468 223.169 142.631 223.169 143.763C223.169 144.368 223.8 144.855 223.487 146.093C223.257 147.003 222.791 147.324 222.698 147.801C222.566 148.468 223.285 149.107 223.102 149.763C222.908 150.456 221.882 150.581 221.582 151.236C221.264 151.929 221.873 152.957 221.262 153.415C221.05 153.574 220.756 153.585 220.538 153.737C219.966 154.133 220.316 155.003 220.418 155.691C220.546 156.565 220.1 157.497 219.532 157.997C218.509 158.728 217.852 159.947 217.805 161.202C217.787 161.676 217.833 162.207 217.52 162.565C217.097 163.048 216.262 162.925 215.799 163.371C215.414 163.74 215.429 164.349 215.222 164.841C214.919 165.559 214.171 165.967 213.723 166.489C212.826 167.295 211.421 166.734 210.35 166.177C204.536 163.157 198.168 161.181 192.734 157.374C194.206 154.043 195.677 150.711 197.158 147.281C199.366 148.668 202.245 148.756 204.689 147.846C207.133 146.937 209.163 145.12 210.679 143C212.195 140.88 215.853 129.591 216.124 123.269C214.175 122.62 213.103 119.644 213.596 117.651C212.242 118.631 210.34 118.794 208.838 118.059C209.084 119.982 206.709 121.177 204.768 121.191C204.25 121.195 203.657 121.19 203.315 121.578C203.05 121.878 203.03 122.316 202.867 122.681C202.52 123.46 201.609 123.782 200.803 124.066C198.161 124.997 195.673 126.365 193.473 128.097C193.952 126.631 192.689 124.981 191.163 124.751C189.637 124.521 188.103 125.458 187.276 126.76C186.342 128.23 186.194 130.168 186.891 131.764C187.588 133.36 189.112 134.568 190.826 134.884C189.103 136.97 187.608 139.244 186.379 141.654C186.113 142.177 185.856 142.712 185.72 143.283C185.474 144.316 185.6 145.503 184.93 146.327C184.708 146.601 184.415 146.808 184.188 147.077C183.895 147.427 183.729 147.863 183.569 148.29C182.505 151.124 181.441 153.957 180.376 156.791C180.007 157.774 179.619 158.788 178.888 159.543C177.27 161.212 174.26 161.343 173.232 163.427C172.223 163.385 171.416 162.255 171.703 161.288C172.277 161.397 172.58 160.603 172.498 160.025C172.416 159.447 172.216 158.772 172.614 158.345C172.851 158.092 173.262 157.99 173.376 157.663C173.501 157.302 173.179 156.957 173.059 156.595C172.869 156.024 173.197 155.426 173.437 154.873C174.243 153.018 174.109 150.907 173.96 148.889C173.924 148.4 173.873 147.874 173.556 147.5C172.89 146.716 171.626 147.104 170.7 147.553C163.567 143.981 158.015 141.673 151.422 140.682C152.124 140.399 153.379 139.69 153.884 139.128C154.39 138.565 154.599 137.127 154.15 136.518C154.947 137.055 155.805 135.788 155.691 134.835C155.576 133.882 155.14 132.8 155.738 132.049C156.507 131.083 158.365 131.563 158.99 130.498C159.587 129.478 158.418 128.034 159.08 127.055C159.65 126.212 161.139 126.437 161.671 125.569C162.252 124.623 161.263 123.037 162.19 122.424C162.477 122.234 162.85 122.239 163.16 122.091C164.435 121.482 163.751 118.987 165.094 118.547C165.655 118.363 166.31 118.691 166.843 118.437C167.852 117.958 167.303 116.105 168.277 115.559C168.917 115.199 169.774 115.695 170.438 115.381C171.218 115.011 171.184 113.842 171.805 113.244C172.639 112.44 174.129 113.057 175.121 112.461C175.932 111.974 176.138 110.848 176.897 110.286C177.285 109.999 177.775 109.892 178.202 109.666C179.044 109.222 179.567 108.366 180.177 107.635C183.402 103.767 188.937 101.382 193.975 101.502C196.59 101.565 199.381 103.647 201.99 103.844C204.435 104.028 207.266 104.513 208.437 106.665C210.278 105.154 213.04 105.991 215.164 107.071C216.459 107.729 217.732 108.462 218.791 109.455C221.613 112.096 222.529 116.134 223.306 119.917C223.451 120.622 223.597 121.332 223.601 122.051C223.605 122.552 223.538 123.053 223.54 123.554C223.541 124.15 223.635 124.742 223.778 125.492C223.876 126.421 224.141 127.334 224.556 128.172C224.817 128.698 225.146 129.281 224.952 129.834C224.801 130.263 224.366 130.548 224.231 130.982C224.057 131.536 224.422 132.096 224.695 132.608C224.969 133.12 225.124 133.847 224.668 134.208C224.54 134.309 224.379 134.364 224.259 134.473C223.934 134.773 224.05 135.302 224.176 135.725C224.302 136.149 224.369 136.701 224.221 136.856V136.855Z" fill="#010101" stroke="#010101" stroke-width="1.5" stroke-linecap="round" stroke-linejoin="round"/>
<path d="M116.609 207.328C136.516 218.239 154.952 228.72 174.735 239.562C177.995 241.349 184.219 245.42 188.303 248.122C195.077 252.603 200.782 255.888 204.8 262.941C210.44 272.841 209.392 285.09 207.366 296.299C202.851 321.271 194.34 345.337 185.214 369.019C170.359 362.504 153.371 354.923 138.516 348.407C149.815 326.942 160.002 304.544 170.736 278.037C156.374 271.737 141.721 265.438 132.534 260.422C123.458 255.467 109.586 245.31 109.499 230.124C109.449 221.469 112.337 214.642 116.608 207.328H116.609Z" fill="#75CBE2" stroke="#010101" stroke-width="1.5" stroke-linecap="round" stroke-linejoin="round"/>
<path d="M151.834 353.291C158.955 326.487 167.574 300.08 177.637 274.233C164.651 266.748 151.665 259.263 138.679 251.778C133.987 249.074 129.155 246.246 125.963 241.874C121.439 235.677 120.463 227.029 123.151 219.844C123.881 217.892 124.638 216.205 126.02 212.511" stroke="#010101" stroke-width="1.5" stroke-linecap="round" stroke-linejoin="round"/>
<path d="M133.638 217.091C132.974 219.272 130.356 224.649 125.926 225.599C124.8 225.841 123.255 225.86 121.957 225.751" stroke="#010101" stroke-width="1.5" stroke-linecap="round" stroke-linejoin="round"/>
<path d="M54.0302 283.267C47.7812 271.363 41.734 257.031 36.7493 244.546C34.6149 239.199 32.5649 233.596 32.9524 227.853C33.2346 223.669 35.2919 219.15 39.2758 217.823C42.0021 216.915 45.012 217.703 47.6176 218.914C53.0689 221.448 57.5046 225.722 61.5468 230.167C75.0222 244.985 85.361 262.635 91.2306 283.241C78.1507 283.359 67.8334 283.398 54.0302 283.267Z" fill="#55D087" stroke="#010101" stroke-width="1.5" stroke-linecap="round" stroke-linejoin="round"/>
<path d="M38.1315 282.621C32.0608 264.467 23.9073 247.008 13.8802 230.697" stroke="#010101" stroke-width="1.5" stroke-linecap="round" stroke-linejoin="round"/>
<path d="M30.1885 261.949C23.7846 259.38 16.7547 257.124 10.3508 254.555" stroke="#010101" stroke-width="1.5" stroke-linecap="round" stroke-linejoin="round"/>
<path d="M43.6719 261.949C40.4891 265.816 38.2099 269.239 35.027 273.106" stroke="#010101" stroke-width="1.5" stroke-linecap="round" stroke-linejoin="round"/>
<path d="M73.6118 283.256C61.9631 263.063 49.5261 241.505 37.8781 221.312" stroke="#010101" stroke-width="1.5" stroke-linecap="round" stroke-linejoin="round"/>
<path d="M54.0302 224.357C52.977 230.065 51.6812 235.729 50.1488 241.328" stroke="#010101" stroke-width="1.5" stroke-linecap="round" stroke-linejoin="round"/>
<path d="M60.7517 230.421C59.4633 237.316 57.6238 245.829 55.95 252.641" stroke="#010101" stroke-width="1.5" stroke-linecap="round" stroke-linejoin="round"/>
<path d="M61.2471 262.441C54.4906 260.159 47.9346 257.287 41.6769 253.869" stroke="#010101" stroke-width="1.5" stroke-linecap="round" stroke-linejoin="round"/>
<path d="M84.5626 264.683C80.997 270.595 77.1861 276.359 73.1432 281.957" stroke="#010101" stroke-width="1.5" stroke-linecap="round" stroke-linejoin="round"/>
<path d="M232.256 196.468C226.098 187.395 222.827 182.496 218.246 175.634C214.383 169.847 207.387 163.586 199.284 161.641C195.141 166.157 191.983 171.729 186.859 175.096C182.617 177.883 177.227 178.867 171.868 177.334C168.516 175.88 166.363 172.389 165.75 168.791C165.137 165.193 165.863 161.495 166.963 158.014C168.062 154.533 169.535 151.173 170.574 147.812C161.889 142.343 156.408 140.846 150.967 140.662C144.195 140.432 133.727 141.451 125.796 142.667C125.857 150.553 126.913 159.324 127.767 167.574C132.631 166.829 137.529 166.314 142.588 166.195C135.62 180.88 125.9 194.082 116.609 207.328C138.332 218.828 152.769 227.932 174.735 239.562C183.172 224.527 191.633 208.987 199.099 192.64C203.617 202.207 209.134 209.653 214.695 218.51C221.973 213.121 227.533 206.273 232.256 196.468Z" fill="#6C81B2" stroke="#010101" stroke-width="1.5" stroke-linecap="round" stroke-linejoin="round"/>
<path d="M172.294 177.398C163.849 192.931 154.984 208.237 145.713 223.293" stroke="#010101" stroke-width="1.5" stroke-linecap="round" stroke-linejoin="round"/>
<path d="M363.497 97.3696C362.43 118.355 361.363 139.339 360.296 160.325C334.056 159.699 310.064 158.491 283.93 156.07C286.784 134.59 284.958 96.1745 285.9 94.954C308.985 94.954 334.926 95.1489 363.497 97.3696Z" fill="#E3E3FF" stroke="#010101" stroke-width="1.5" stroke-linecap="round" stroke-linejoin="round"/>
<path d="M320.663 135.699C324.826 128.928 329.935 122.738 335.796 117.365C341.409 125.748 346.645 134.384 350.928 143.186C341.868 143.577 331.241 143.099 323.771 142.668C323.397 140.825 322.7 139.047 320.663 135.699Z" fill="#75CBE2" stroke="#010101" stroke-width="1.5" stroke-linecap="round" stroke-linejoin="round"/>
<path d="M331.084 143.038C324.996 133.169 319.989 123.97 313.278 114.513C306.246 122.962 298.153 132.028 291.435 141.3C295.679 141.68 318.237 142.581 331.084 143.038Z" fill="white" stroke="#010101" stroke-width="1.5" stroke-linecap="round" stroke-linejoin="round"/>
<path d="M329.805 111.744C329.349 112.955 326.443 115.072 323.955 112.505C322.824 111.337 322.851 109.491 323.558 108.027C324.896 105.254 331.952 106.05 329.805 111.744Z" fill="white" stroke="#010101" stroke-width="1.5" stroke-linecap="round" stroke-linejoin="round"/>
<path d="M315.342 133.672C314.865 138.346 314.387 143.019 313.91 147.693C312.65 147.045 311.39 146.398 310.131 145.75C309.508 147.422 308.792 149.06 307.988 150.654C307.015 149.793 305.831 149.172 304.569 148.86C305.515 147.577 306.341 146.208 307.034 144.773C305.59 144.015 304.178 143.194 302.805 142.312C305.918 139.448 309.289 136.861 312.862 134.595C313.882 133.949 314.943 133.306 315.671 132.344C315.609 132.67 315.414 132.969 315.343 133.671L315.342 133.672Z" fill="#010101" stroke="#010101" stroke-width="1.5" stroke-linecap="round" stroke-linejoin="round"/>
<path d="M330.72 68.5238C332.823 64.8684 335.002 60.8447 334.371 56.6765C333.864 53.3344 331.577 50.4857 328.866 48.4632C327.461 47.4154 325.87 46.525 324.128 46.3235C322.387 46.1219 320.472 46.7265 319.471 48.1646C318.47 49.6026 318.721 51.8836 320.219 52.7948C321.606 53.6377 323.57 53.0244 324.503 51.6975C325.435 50.3705 325.448 48.5522 324.857 47.0418C324.266 45.5314 323.151 44.2849 321.947 43.1969C319.455 40.9441 316.307 39.1719 312.946 39.2034" stroke="#010101" stroke-width="1.5" stroke-linecap="round" stroke-linejoin="round"/>
<path d="M286.799 2.72486C285.973 19.341 285.147 35.9571 284.322 52.5732C284.288 53.2427 284.239 53.9584 283.831 54.4913C283.367 55.0992 282.56 55.3128 281.812 55.4748C274.707 57.0126 267.396 57.2985 260.127 57.4317C247.336 57.666 234.54 57.4451 221.748 57.2241C207.2 56.9724 192.653 56.7214 178.105 56.4696C169.196 56.3157 160.269 56.1603 151.423 55.0978C151.971 37.4012 152.519 19.7045 153.067 2.00783C159.06 0.584493 165.283 0.531603 171.443 0.512857C211.742 0.389001 252.044 1.39793 286.8 2.72553L286.799 2.72486Z" fill="#E3E3FF" stroke="#010101" stroke-width="1.5" stroke-linecap="round" stroke-linejoin="round"/>
<path d="M276.269 14.3405C275.543 24.2805 274.817 34.2204 274.091 44.1603C260.247 43.6422 249.601 43.7433 237.184 42.6794C237.642 33.2034 238.465 23.7442 239.65 14.3312C251.626 14.3312 263.787 13.8725 276.27 14.3399L276.269 14.3405Z" fill="white" stroke="#010101" stroke-width="1.5" stroke-linecap="round" stroke-linejoin="round"/>
<path d="M273.479 43.4533C262.301 33.885 251.123 24.3159 239.945 14.7476" stroke="#010101" stroke-width="1.5" stroke-linecap="round" stroke-linejoin="round"/>
<path d="M275.947 14.8004C264.093 24.8756 251.418 33.9867 238.088 42.0139" stroke="#010101" stroke-width="1.5" stroke-linecap="round" stroke-linejoin="round"/>
<path d="M225.471 16.201C206.43 14.5427 187.32 13.675 168.207 13.6007L225.471 16.201Z" fill="white"/>
<path d="M225.471 16.201C206.43 14.5427 187.32 13.675 168.207 13.6007" stroke="#010101" stroke-width="1.5" stroke-linecap="round" stroke-linejoin="round"/>
<path d="M224.211 27.2584C204.469 26.2341 184.715 25.4387 164.954 24.8723L224.211 27.2584Z" fill="white"/>
<path d="M224.211 27.2584C204.469 26.2341 184.715 25.4387 164.954 24.8723" stroke="#010101" stroke-width="1.5" stroke-linecap="round" stroke-linejoin="round"/>
<path d="M224.213 37.9146C218.757 38.2648 213.268 38.0941 207.843 37.4065L224.213 37.9146Z" fill="white"/>
<path d="M224.213 37.9146C218.757 38.2648 213.268 38.0941 207.843 37.4065" stroke="#010101" stroke-width="1.5" stroke-linecap="round" stroke-linejoin="round"/>
<path d="M71.3936 153.285L72.3629 183.013L32.9048 182.418L32.3109 152.789L71.3936 153.285Z" fill="#E3E3FF" stroke="#010101" stroke-width="1.5" stroke-linecap="round" stroke-linejoin="round"/>
<path d="M47.2817 173.168H64.9648L64.6873 161.372H47.0042L47.2817 173.168Z" fill="#75CBE2" stroke="#010101" stroke-width="1.5" stroke-linecap="round" stroke-linejoin="round"/>
<path d="M47.0759 165.137L39.9756 162.111V171.763L47.0042 168.936L47.0759 165.137Z" fill="#75CBE2" stroke="#010101" stroke-width="1.5" stroke-linecap="round" stroke-linejoin="round"/>
<path d="M78.439 71.0706C77.8437 57.7866 77.8906 42.7069 77.9376 29.4102C86.6984 29.0245 95.7152 29.2656 104.707 29.8828C108.068 32.2896 110.95 35.6451 113.136 39.2256C112.918 50.076 113.056 60.9258 112.471 71.7702C101.998 72.105 78.4577 71.477 78.4397 71.0706H78.439Z" fill="white" stroke="#010101" stroke-width="1.5" stroke-linecap="round" stroke-linejoin="round"/>
<path d="M112.629 39.0669C109.696 38.9256 106.769 38.6384 103.865 38.2079C104.297 35.6511 104.555 33.0649 104.637 30.4733" fill="white"/>
<path d="M112.629 39.0669C109.696 38.9256 106.769 38.6384 103.865 38.2079C104.297 35.6511 104.555 33.0649 104.637 30.4733" stroke="#010101" stroke-width="1.5" stroke-linecap="round" stroke-linejoin="round"/>
<path d="M107.576 42.8943C100.077 42.4243 92.5652 42.1766 85.0519 42.1519L107.576 42.8943Z" fill="white"/>
<path d="M107.576 42.8943C100.077 42.4243 92.5652 42.1766 85.0519 42.1519" stroke="#010101" stroke-width="1.5" stroke-linecap="round" stroke-linejoin="round"/>
<path d="M107.206 49.4058C99.4537 48.6781 91.6763 48.2142 83.8929 48.0146L107.206 49.4058Z" fill="white"/>
<path d="M107.206 49.4058C99.4537 48.6781 91.6763 48.2142 83.8929 48.0146" stroke="#010101" stroke-width="1.5" stroke-linecap="round" stroke-linejoin="round"/>
<path d="M106.974 54.7798C99.4551 54.7724 91.9364 54.4665 84.4412 53.8633L106.974 54.7798Z" fill="white"/>
<path d="M106.974 54.7798C99.4551 54.7724 91.9364 54.4665 84.4412 53.8633" stroke="#010101" stroke-width="1.5" stroke-linecap="round" stroke-linejoin="round"/>
<path d="M106.372 61.9072C103.452 61.7794 100.532 61.6515 97.613 61.5229L106.372 61.9072Z" fill="white"/>
<path d="M106.372 61.9072C103.452 61.7794 100.532 61.6515 97.613 61.5229" stroke="#010101" stroke-width="1.5" stroke-linecap="round" stroke-linejoin="round"/>
<path d="M197.37 147.643C196.107 146.858 194.905 145.972 193.782 144.998L197.37 147.643Z" fill="white"/>
<path d="M197.37 147.643C196.107 146.858 194.905 145.972 193.782 144.998" stroke="#010101" stroke-width="1.5" stroke-linecap="round" stroke-linejoin="round"/>
<path d="M209.517 131.931C209.594 133.566 209.669 135.202 209.746 136.837C209.76 137.142 209.751 137.499 209.506 137.681C209.301 137.832 209.017 137.794 208.768 137.743C207.997 137.585 207.238 137.37 206.499 137.101" fill="white"/>
<path d="M209.517 131.931C209.594 133.566 209.669 135.202 209.746 136.837C209.76 137.142 209.751 137.499 209.506 137.681C209.301 137.832 209.017 137.794 208.768 137.743C207.997 137.585 207.238 137.37 206.499 137.101" stroke="#010101" stroke-width="1.5" stroke-linecap="round" stroke-linejoin="round"/>
<path d="M98.8981 283.349C65.3095 283.349 45.4021 282.959 9.52434 281.977" stroke="#010101" stroke-width="1.5" stroke-linecap="round" stroke-linejoin="round"/>
<path d="M80.9186 96.9123L81.2605 99.0614" stroke="#010101" stroke-width="1.5" stroke-linecap="round" stroke-linejoin="round"/>
<path d="M294.71 238.797C296.14 228.143 298.338 216.152 300.281 205.579C307.306 206.524 314.446 208.004 321.511 209.781C323.841 212.176 325.653 215.258 326.879 218.419C325.151 227.021 323.706 235.673 321.687 244.218C313.306 242.987 294.666 239.124 294.71 238.797Z" fill="white" stroke="#010101" stroke-width="1.5" stroke-linecap="round" stroke-linejoin="round"/>
<path d="M326.499 218.221C324.184 217.689 321.897 217.042 319.648 216.285C320.358 214.312 320.934 212.292 321.371 210.241" fill="white"/>
<path d="M326.499 218.221C324.184 217.689 321.897 217.042 319.648 216.285C320.358 214.312 320.934 212.292 321.371 210.241" stroke="#010101" stroke-width="1.5" stroke-linecap="round" stroke-linejoin="round"/>
<path d="M315.212 227.047C303.528 226.76 301.798 226.653 290.507 227.074C292.21 235.356 292.24 242.833 295.093 250.914C307.669 250.282 326.145 251.181 326.145 251.181C326.145 251.181 327.135 232.302 327.861 222.98C324.19 222.583 320.408 222.517 316.754 222.856C316.073 224.384 315.472 226.125 315.212 227.046V227.047Z" fill="#E3E3FF" stroke="#010101" stroke-width="1.5" stroke-linecap="round" stroke-linejoin="round"/>
<path d="M317.326 292.943C318.245 292.819 319.217 293.263 319.724 294.037C320.232 294.813 320.248 295.88 319.765 296.67C318.905 298.078 316.546 298.145 315.571 296.814C314.595 295.484 315.302 293.216 317.326 292.943Z" fill="#010101"/>
<path d="M1.68856 195.429C2.21344 195.358 2.76917 195.611 3.05876 196.055C3.34835 196.498 3.35776 197.108 3.08224 197.559C2.59088 198.364 1.24277 198.401 0.685037 197.641C0.127306 196.881 0.531533 195.585 1.68856 195.429Z" fill="#010101"/>
<path d="M140.67 90.765C142.02 90.5829 143.448 91.235 144.194 92.3745C144.939 93.514 144.963 95.0826 144.254 96.2441C142.99 98.3135 139.524 98.4106 138.089 96.455C136.655 94.5001 137.695 91.1667 140.67 90.765Z" fill="#010101"/>
<path d="M47.9272 115.402C46.913 114.568 45.8981 113.735 44.8839 112.901C45.0092 112.972 45.1339 113.042 47.9272 115.402Z" stroke="#010101" stroke-width="1.5" stroke-linecap="round" stroke-linejoin="round"/>
<path d="M28.3638 305.871C27.1739 306.148 25.9847 306.426 24.7948 306.703" stroke="#010101" stroke-width="1.5" stroke-linecap="round" stroke-linejoin="round"/>
<path d="M261.971 258.699C261.136 257.809 260.301 256.919 259.466 256.028" stroke="#010101" stroke-width="1.5" stroke-linecap="round" stroke-linejoin="round"/>
<path d="M263.869 87.2857C264.394 87.2147 264.95 87.4684 265.239 87.9117C265.529 88.3549 265.538 88.9648 265.263 89.416C264.771 90.2207 263.423 90.2582 262.866 89.4983C262.308 88.7378 262.712 87.4423 263.869 87.2857Z" fill="#010101"/>
</g>
</g>
<defs>
<clipPath id="clip0_85_456">
<rect width="364" height="395" fill="white" transform="matrix(-1 0 0 1 364 0)"/>
</clipPath>
</defs>
</svg>
