<svg width="64" height="64" viewBox="0 0 64 64" fill="none" xmlns="http://www.w3.org/2000/svg">
<path d="M34.6666 56V61.3333H29.3333V56H7.99992C7.29267 56 6.6144 55.7191 6.1143 55.219C5.6142 54.7189 5.33325 54.0406 5.33325 53.3333V10.6667C5.33325 9.95942 5.6142 9.28115 6.1143 8.78105C6.6144 8.28095 7.29267 8 7.99992 8H23.9999C25.5132 7.99992 27.0092 8.32183 28.3885 8.94436C29.7678 9.56689 30.9989 10.4758 31.9999 11.6107C33.001 10.4758 34.232 9.56689 35.6113 8.94436C36.9906 8.32183 38.4866 7.99992 39.9999 8H55.9999C56.7072 8 57.3854 8.28095 57.8855 8.78105C58.3856 9.28115 58.6666 9.95942 58.6666 10.6667V53.3333C58.6666 54.0406 58.3856 54.7189 57.8855 55.219C57.3854 55.7191 56.7072 56 55.9999 56H34.6666ZM53.3333 50.6667V13.3333H39.9999C38.5854 13.3333 37.2289 13.8952 36.2287 14.8954C35.2285 15.8956 34.6666 17.2522 34.6666 18.6667V50.6667H53.3333ZM29.3333 50.6667V18.6667C29.3333 17.2522 28.7713 15.8956 27.7712 14.8954C26.771 13.8952 25.4144 13.3333 23.9999 13.3333H10.6666V50.6667H29.3333Z" fill="white"/>
</svg>
