<svg width="311" height="325" viewBox="0 0 311 325" fill="none" xmlns="http://www.w3.org/2000/svg">
<g clip-path="url(#clip0_85_414)">
<mask id="mask0_85_414" style="mask-type:luminance" maskUnits="userSpaceOnUse" x="0" y="0" width="311" height="325">
<path d="M310.523 0H0V324.935H310.523V0Z" fill="white"/>
</mask>
<g mask="url(#mask0_85_414)">
<path d="M134.946 134.076C125.883 137.269 118.491 144.878 115.555 154.036C115.173 155.228 114.844 156.48 114.061 157.457C113.279 158.435 111.882 159.057 110.749 158.523C110.147 158.239 109.718 157.683 109.393 157.102C108.39 155.308 108.183 153.187 108.097 151.133C107.887 146.154 108.265 141.147 109.271 136.266C110.311 131.218 118.465 111.59 138.785 111.011C139.121 117.896 137.532 124.711 135.954 131.42C135.582 133.002 135.178 134.65 134.946 134.076Z" fill="#6C81B2" stroke="#010101" stroke-width="1.5" stroke-linecap="round" stroke-linejoin="round"/>
<path d="M170.481 146.729C175.285 155.058 175.948 165.651 172.222 174.515C171.737 175.669 171.172 176.834 171.13 178.086C171.089 179.338 171.745 180.721 172.952 181.054C173.593 181.231 174.281 181.088 174.906 180.858C176.834 180.151 178.37 178.675 179.771 177.172C183.168 173.528 186.137 169.481 188.548 165.12C191.04 160.61 197.614 140.397 182.564 126.718C177.833 131.726 174.606 137.935 171.442 144.056C170.696 145.5 169.931 147.015 170.481 146.73V146.729Z" fill="#6C81B2" stroke="#010101" stroke-width="1.5" stroke-linecap="round" stroke-linejoin="round"/>
<path d="M134.379 140.855C130.062 150.095 124.875 158.896 119.697 167.681C111.658 181.317 103.62 194.953 95.9512 207.505C85.203 200.503 72.8813 195.362 60.0597 195.08C47.2381 194.798 33.9149 199.935 26.2784 210.248C18.6419 220.56 18.0347 236.199 26.4613 245.875C17.9635 244.555 9.17177 249.359 4.613 256.658C0.0542243 263.956 -0.586393 273.277 1.68478 281.579C4.72196 292.685 12.8857 302.271 23.3595 307.032C33.8333 311.792 42.584 311.636 52.9363 306.616C55.1549 313.834 60.4698 316.348 65.2251 318.807C72.8901 322.769 81.747 325.071 90.2004 323.347C98.6533 321.622 106.458 315.23 108.126 306.758C112.852 316.249 123.606 321.171 133.99 323.277C140.91 324.68 148.155 325.145 154.991 323.373C168.609 319.843 179.16 306.759 179.735 292.691C194.389 293.157 202.676 285.855 205.267 272.445C207.791 259.386 194.629 247.438 182.964 247.002C187.408 244.762 193.527 234.953 185.258 221.404C179.601 212.135 166.221 206.947 155.909 207.763C158.629 189.235 161.459 177.773 168.256 152.535C157.854 147.119 148.413 145.182 134.38 140.855H134.379Z" fill="white" stroke="#010101" stroke-width="1.5" stroke-linecap="round" stroke-linejoin="round"/>
<path d="M26.3529 245.924C30.7009 248.436 33.5897 253.123 38.1802 255.158C40.3824 256.134 42.8146 256.421 45.1865 256.839" stroke="#010101" stroke-width="1.5" stroke-linecap="round" stroke-linejoin="round"/>
<path d="M52.9407 307.283C49.7157 298.181 51.5149 287.467 57.5356 279.92" stroke="#010101" stroke-width="1.5" stroke-linecap="round" stroke-linejoin="round"/>
<path d="M108.226 307.731C109.416 301.622 109.513 295.303 108.512 289.161" stroke="#010101" stroke-width="1.5" stroke-linecap="round" stroke-linejoin="round"/>
<path d="M183.06 247.509C178.926 247.405 174.771 248.861 171.607 251.525" stroke="#010101" stroke-width="1.5" stroke-linecap="round" stroke-linejoin="round"/>
<path d="M179.561 292.964C176.639 292.17 173.779 291.147 171.017 289.909" stroke="#010101" stroke-width="1.5" stroke-linecap="round" stroke-linejoin="round"/>
<path d="M141.457 184.174C132.498 202.695 128.213 223.198 119.296 241.74" stroke="#010101" stroke-width="1.5" stroke-linecap="round" stroke-linejoin="round"/>
<path d="M110.513 201.558C103.826 213.802 96.8563 225.89 89.6118 237.812" stroke="#010101" stroke-width="1.5" stroke-linecap="round" stroke-linejoin="round"/>
<path d="M214.905 34.2215C213.526 51.5073 209.386 68.6397 203.681 85.0596C195.249 109.328 185.207 134.358 168.414 156.746C156.96 154.543 134.768 144.173 130.738 143.231C140.846 89.2248 156.029 55.2396 182.787 23.7371C185.607 20.4158 188.558 17.1165 191.646 13.8281C196.574 8.58319 201.934 3.4972 208.171 0.471898C210.235 0.0992168 212.305 1.49129 213.361 3.31085C214.413 5.13042 214.67 7.28977 214.856 9.38336C215.59 17.6591 215.562 25.9567 214.905 34.2215Z" fill="#E3E3FF" stroke="#010101" stroke-width="1.5" stroke-linecap="round" stroke-linejoin="round"/>
<path d="M162.211 120.046C160.556 119.408 158.813 120.933 157.948 122.483C152.785 131.729 142.286 156.419 137.923 168.6C137.54 169.669 136.381 171.945 139.157 173.038C141.3 173.882 142.394 171.718 143.711 168.721C148.094 158.743 152.75 147.942 157.133 137.964C159.632 132.276 164.978 121.432 162.212 120.046H162.211Z" fill="#6C81B2" stroke="#010101" stroke-width="1.5" stroke-linecap="round" stroke-linejoin="round"/>
<path d="M190.222 34.9444C188.025 35.1236 185.808 35.6837 183.952 36.8746C181.842 38.2289 180.425 40.4513 179.461 42.7679C178.759 44.456 178.255 46.2772 178.42 48.0984C178.529 49.2942 179.363 56.9945 188.907 58.1586C191.261 58.4457 200.034 59.2119 202.428 50.4046C203.928 44.8823 200.609 34.0976 190.222 34.9444Z" fill="white" stroke="#010101" stroke-width="1.5" stroke-linecap="round" stroke-linejoin="round"/>
<path d="M190.326 38.3297C188.767 38.4569 187.194 38.8548 185.877 39.6993C184.379 40.6606 183.374 42.2374 182.689 43.8816C182.191 45.0797 181.834 46.372 181.951 47.6643C182.028 48.5133 182.62 53.9774 189.393 54.8039C191.063 55.0078 197.29 55.5515 198.988 49.3014C200.053 45.3822 197.697 37.7291 190.326 38.3297Z" stroke="#010101" stroke-width="1.5" stroke-linecap="round" stroke-linejoin="round"/>
<path d="M214.905 34.2215C203.216 30.6865 193.278 27.0528 182.787 23.7371C185.607 20.4158 188.558 17.1165 191.646 13.8281C196.574 8.58319 201.934 3.4972 208.171 0.471898C210.235 0.0992168 212.305 1.49129 213.361 3.31085C214.413 5.13042 214.67 7.28977 214.856 9.38336C215.59 17.6591 215.562 25.9567 214.905 34.2215Z" fill="#6C81B2" stroke="#010101" stroke-width="1.5" stroke-linecap="round" stroke-linejoin="round"/>
<path d="M230.038 37.2862C230.938 36.0745 231.535 34.5777 231.41 33.0733C231.284 31.5689 230.331 30.0907 228.901 29.6095C227.452 29.1218 225.885 29.6901 224.446 30.2075C220.224 31.7267 215.77 32.9023 212.154 35.5609C211.272 36.2093 210.439 36.9541 209.869 37.8896C209.11 39.137 208.874 40.6409 208.887 42.1015C208.897 43.288 209.062 44.4735 209.375 45.6178C210.643 50.2468 214.238 53.8979 218.186 56.6207C220.554 53.2485 222.955 49.81 224.217 45.8869C224.696 44.3984 225.007 42.849 225.649 41.4235C226.291 39.998 228.23 39.7202 230.038 37.2862Z" fill="#010101" stroke="#010101" stroke-width="1.5" stroke-linecap="round" stroke-linejoin="round"/>
<path d="M216.518 45.7417C216.261 45.8968 216.035 46.0979 215.856 46.3391C215.402 46.9518 215.122 47.7114 215.168 48.4732C215.214 49.2345 215.613 49.987 216.268 50.3777C216.879 50.7428 217.637 50.7663 218.345 50.5778C218.218 52.7942 218.193 55.0165 218.011 57.4187C219.043 58.597 220.456 59.435 221.984 59.7748C223.512 60.1146 225.147 59.954 226.738 59.2761C226.888 57.7404 226.979 56.1987 226.996 54.606C228.943 53.9347 230.936 52.8676 231.803 50.9976C232.418 49.6691 232.369 48.1373 232.237 46.6789C231.907 43.0491 231.143 39.4593 229.943 36.1271C228.673 36.2707 227.388 36.417 226.186 36.8571C224.985 37.2972 222.129 38.2092 221.735 41.7211C221.387 44.8226 221.976 47.1573 221.873 47.2949C221.776 47.4237 220.052 47.5744 219.635 47.5443C219.193 45.899 218.09 44.7947 216.518 45.7417Z" fill="white" stroke="#010101" stroke-width="1.5" stroke-linecap="round" stroke-linejoin="round"/>
<path d="M228.942 42.1848C229.404 43.2781 229.865 44.3715 230.427 45.517C229.878 45.8031 229.274 45.9812 228.657 46.0376" stroke="#010101" stroke-width="1.5" stroke-linecap="round" stroke-linejoin="round"/>
<path d="M223.322 54.566C224.62 54.8209 225.972 54.8023 227.262 54.5123" stroke="#010101" stroke-width="1.5" stroke-linecap="round" stroke-linejoin="round"/>
<path d="M228.742 62.7694C230.456 74.1992 230.08 109.577 230.046 119.266C218.484 121.155 209.3 120.826 197.859 118.299C197.454 118.21 197.029 118.107 196.728 117.823C196.417 117.529 196.29 117.089 196.24 116.664C196.048 115.027 196.796 113.442 197.529 111.966C205.86 95.1757 214.393 79.1329 228.742 62.7694Z" fill="#75CBE2" stroke="#010101" stroke-width="1.5" stroke-linecap="round" stroke-linejoin="round"/>
<path d="M213.255 59.2393C214.414 58.0709 214.587 57.4154 215.781 55.9959C220.169 56.6075 224.282 57.2005 229.153 58.3104C228.594 59.7726 228.859 61.037 228.558 62.7694C221.986 61.4957 218.957 60.7142 213.255 59.2393Z" fill="#6C81B2" stroke="#010101" stroke-width="1.5" stroke-linecap="round" stroke-linejoin="round"/>
<path d="M225.946 199.156C224.491 202.274 223.036 205.392 221.476 208.646C228.288 213.391 235.852 217.05 243.871 219.461C242.567 216.79 241.468 214.02 240.587 211.183C240.282 210.201 240.001 209.179 240.125 208.158C240.272 206.954 240.975 205.853 241.006 204.64C236.616 202.638 232.304 200.465 225.946 199.156Z" fill="white" stroke="#010101" stroke-width="1.5" stroke-linecap="round" stroke-linejoin="round"/>
<path d="M201.802 160.823C197.961 162.109 194.209 163.66 190.579 165.46C193.098 172.972 195.616 180.485 198.133 187.997C199.004 184.619 199.876 181.242 200.747 177.864C201.038 176.734 201.339 175.584 201.961 174.596C202.582 173.609 203.589 172.793 204.751 172.701C204.199 168.38 203.35 164.096 201.802 160.822L201.802 160.823Z" fill="white" stroke="#010101" stroke-width="1.5" stroke-linecap="round" stroke-linejoin="round"/>
<path d="M191.383 118.418C189.276 122.001 188.579 126.39 189.475 130.449C190.37 134.509 192.847 138.197 196.265 140.559C199.269 142.636 202.868 143.664 206.446 144.393C215.749 146.289 225.311 146.377 234.804 146.457C237.216 146.477 239.628 146.498 242.134 146.792C236.077 164.192 229.845 181.532 223.353 199.598C230.061 203.59 237.796 205.836 245.641 205.859C255.408 185.444 263.257 164.11 269.051 142.23C269.85 139.214 270.601 135.961 269.513 133.036C268.429 130.121 265.703 128.122 262.873 126.836C259.794 125.436 256.468 124.68 253.169 123.933C245.351 122.163 237.531 120.393 229.172 118.904C215.462 119.25 201.732 118.804 191.383 118.419L191.383 118.418Z" fill="#010101" stroke="#010101" stroke-width="1.5" stroke-linecap="round" stroke-linejoin="round"/>
<path d="M254.719 125.793C266.405 124.499 272.695 132.013 273.559 139.56C273.725 141.007 273.692 142.493 273.291 143.893C272.837 145.483 271.919 146.918 270.778 148.115C268.368 150.644 265.068 152.09 261.862 153.473C242.974 161.618 224.085 169.763 205.252 178.052C203.095 171.783 201.208 165.421 199.445 159.242C208.032 153.262 219.73 147.199 228.657 142.341C240.008 137.522 244.646 132.938 254.719 125.793Z" fill="#010101" stroke="#010101" stroke-width="1.5" stroke-linecap="round" stroke-linejoin="round"/>
<path d="M145.801 86.1064C143.946 86.8879 141.746 86.9581 140.2 88.2477C139.297 89.0007 138.739 90.0793 138.218 91.1332C137.479 92.6272 136.753 94.1755 136.611 95.8367C136.469 97.4978 137.025 99.3174 138.39 100.494C138.569 101.245 138.75 102.006 138.74 102.778C138.733 103.385 138.609 104.005 138.772 104.589C138.8 104.69 138.839 104.791 138.912 104.865C139.091 105.046 139.402 104.992 139.614 104.853C140.018 104.587 140.212 104.104 140.377 103.648C140.876 102.264 141.327 100.853 141.638 99.7438C142.442 97.7006 143.605 95.8136 144.397 93.7661C145.189 91.7185 145.589 89.3931 145.801 86.1064Z" fill="white" stroke="#010101" stroke-width="1.5" stroke-linecap="round" stroke-linejoin="round"/>
<path d="M213.059 59.2393C211.074 61.2189 208.989 63.0982 206.529 65.154C185.705 70.9854 165.171 77.8575 144.901 85.4832C143.645 90.4991 142.512 95.5462 141.773 100.188C161.634 95.9994 181.424 91.4719 200.541 86.3525C196.681 97.0572 193.021 107.834 189.488 119.255C194.971 120.788 200.201 123.096 205.551 125.793C208.702 123.591 211.881 121.364 214.467 118.52C221.107 111.216 223.008 100.895 224.637 91.1546C226.351 80.9069 227.244 73.125 228.743 62.7689C224.616 62.2208 218.177 60.5953 213.06 59.2388L213.059 59.2393Z" fill="#6C81B2" stroke="#010101" stroke-width="1.5" stroke-linecap="round" stroke-linejoin="round"/>
<path d="M218.892 108.697C214.586 112.104 210.034 115.525 204.677 116.723C205.016 119.136 205.356 121.551 205.695 123.964" stroke="#010101" stroke-width="1.5" stroke-linecap="round" stroke-linejoin="round"/>
<path d="M221.019 146.047C227.883 146.368 234.748 146.688 241.693 146.976C240.001 153.228 238.018 159.403 235.754 165.472" stroke="white" stroke-width="1.5" stroke-linecap="round" stroke-linejoin="round"/>
<path d="M258.548 125.095C262.603 126.233 266.855 128.123 268.779 131.873C270.27 134.779 270.062 138.256 269.459 141.466C268.783 145.062 267.654 148.573 266.109 151.89" stroke="white" stroke-width="1.5" stroke-linecap="round" stroke-linejoin="round"/>
<path d="M17.3164 180.683C19.0877 179.586 20.8584 178.488 22.6297 177.391" stroke="#010101" stroke-width="1.5" stroke-linecap="round" stroke-linejoin="round"/>
<path d="M234.923 272.714C235.821 274.698 236.719 276.683 237.617 278.668C237.721 278.898 237.896 279.17 238.146 279.13C238.395 279.091 238.216 278.578 234.923 272.714Z" stroke="#010101" stroke-width="1.5" stroke-linecap="round" stroke-linejoin="round"/>
<path d="M102.318 77.2826C97.4514 69.1801 91.2358 61.9769 82.8278 57.1216C77.5994 54.1024 69.9186 55.9159 66.3897 60.8178C62.96 65.5815 63.8475 69.0036 66.4007 74.2902C62.7941 69.0118 56.9404 64.5495 50.5818 65.1705C49.6379 65.2625 48.6863 65.4724 47.871 65.958C46.0242 67.058 45.2187 69.4015 45.3534 71.5488C45.4881 73.6961 46.3954 75.7075 49.0312 77.1555C72.4652 77.1555 74.1072 77.2831 102.319 77.2831L102.318 77.2826Z" fill="#E3E3FF" stroke="#010101" stroke-width="1.5" stroke-linecap="round" stroke-linejoin="round"/>
<path d="M309.638 206.258C310.01 202.268 310.934 196.312 308.399 193.211C305.632 189.825 300.319 189.433 296.396 191.361C292.473 193.289 290.286 196.877 288.229 200.737C289.73 198.037 290.081 195.141 290.292 192.058C290.57 188.003 288.981 183.143 285.042 182.158C283.36 181.738 281.578 182.132 279.957 182.744C275.077 184.585 271.107 188.343 268.132 192.63C265.158 196.918 262.144 202.71 260.244 206.839C278.719 206.839 288.285 206.259 309.638 206.259L309.638 206.258Z" fill="#E3E3FF" stroke="#010101" stroke-width="1.5" stroke-linecap="round" stroke-linejoin="round"/>
<path d="M276.101 235.957C275.393 235.861 274.645 236.204 274.255 236.802C273.865 237.4 273.852 238.223 274.224 238.833C274.886 239.919 276.701 239.97 277.453 238.944C278.204 237.917 277.659 236.168 276.101 235.957L276.101 235.957Z" fill="#010101"/>
<path d="M84.3445 131.026C83.8391 130.957 83.3047 131.202 83.026 131.629C82.7473 132.056 82.738 132.644 83.0036 133.08C83.4767 133.856 84.7732 133.892 85.3098 133.159C85.8464 132.426 85.4571 131.176 84.3445 131.025V131.026Z" fill="#010101"/>
<path d="M285.343 92.5993C284.837 92.5307 284.303 92.7752 284.024 93.2027C283.745 93.6302 283.736 94.2177 284.002 94.6534C284.475 95.4294 285.771 95.4656 286.308 94.7323C286.844 93.999 286.455 92.75 285.343 92.5993Z" fill="#010101"/>
</g>
</g>
<defs>
<clipPath id="clip0_85_414">
<rect width="311" height="325" fill="white"/>
</clipPath>
</defs>
</svg>
