<svg width="298" height="398" viewBox="0 0 298 398" fill="none" xmlns="http://www.w3.org/2000/svg">
<g clip-path="url(#clip0_85_347)">
<mask id="mask0_85_347" style="mask-type:luminance" maskUnits="userSpaceOnUse" x="0" y="0" width="298" height="398">
<path d="M297.438 0H0V397.62H297.438V0Z" fill="white"/>
</mask>
<g mask="url(#mask0_85_347)">
<path d="M63.5084 42.3014C54.6248 40.9595 22.052 44.6926 31.6631 76.1697C32.8307 79.9936 35.3218 83.4264 38.5303 85.8082C42.9302 89.0743 48.661 89.8208 54.1239 90.2163C62.9118 90.8524 71.731 90.8587 80.5414 90.8643C109.059 90.8838 134.906 90.482 165.833 88.6123C179.984 87.7568 193.197 79.1694 193.181 62.1043C193.174 55.2274 183.062 25.6813 154.644 30.2273C153.221 17.7915 136.88 -6.25458 98.9917 2.25134C85.8716 5.19654 68.1731 18.8903 63.5084 42.3014Z" fill="white" stroke="#010101" stroke-width="1.5" stroke-linecap="round" stroke-linejoin="round"/>
<path d="M69.5365 55.3446C69.1941 55.3646 68.8272 55.3934 68.5599 55.6084C68.1304 55.9538 68.1467 56.6006 68.2012 57.149C68.4003 59.1534 68.5993 61.1579 68.7978 63.1629C79.0594 62.7568 89.321 62.3506 99.5826 61.9445C119.351 61.1622 139.133 60.3794 158.913 60.7624C159.337 60.7705 159.811 60.7617 160.117 60.4672C160.361 60.2327 160.433 59.8755 160.482 59.5402C160.795 57.4185 160.657 55.2317 160.081 53.1659C142.552 53.1972 84.5524 54.474 69.5365 55.3446Z" fill="#E3E3FF" stroke="#010101" stroke-width="1.5" stroke-linecap="round" stroke-linejoin="round"/>
<path d="M223.592 164.255L274.643 395.049" stroke="#010101" stroke-width="1.5" stroke-linecap="round" stroke-linejoin="round"/>
<path d="M139.258 163.35L190.308 394.143" stroke="#010101" stroke-width="1.5" stroke-linecap="round" stroke-linejoin="round"/>
<path d="M139.258 163.35L190.308 394.143" stroke="#010101" stroke-width="1.5" stroke-linecap="round" stroke-linejoin="round"/>
<path d="M144.154 186.137C171.29 185.721 199.334 186.068 228.1 185.282" stroke="#010101" stroke-width="1.5" stroke-linecap="round" stroke-linejoin="round"/>
<path d="M174.942 324.994C202.077 324.578 230.121 324.925 258.887 324.139" stroke="#010101" stroke-width="1.5" stroke-linecap="round" stroke-linejoin="round"/>
<path d="M167.499 289.468C194.635 289.052 222.678 289.399 251.444 288.613" stroke="#010101" stroke-width="1.5" stroke-linecap="round" stroke-linejoin="round"/>
<path d="M159.689 254.956C186.825 254.54 214.869 254.887 243.634 254.101" stroke="#010101" stroke-width="1.5" stroke-linecap="round" stroke-linejoin="round"/>
<path d="M151.97 220.406C179.106 219.99 207.15 220.337 235.916 219.551" stroke="#010101" stroke-width="1.5" stroke-linecap="round" stroke-linejoin="round"/>
<path d="M183.468 362.755C210.603 362.339 238.647 362.686 267.413 361.9" stroke="#010101" stroke-width="1.5" stroke-linecap="round" stroke-linejoin="round"/>
<path d="M85.9391 242.742C86.743 211.611 85.9254 180.435 83.49 149.394C57.405 146.752 29.1107 149.251 2.2963 150.836C1.06173 181.086 0.592188 212.208 0.469482 243.968C29.7862 244.725 60.4764 242.652 85.9391 242.742Z" fill="#E3E3FF" stroke="#010101" stroke-width="1.5" stroke-linecap="round" stroke-linejoin="round"/>
<path d="M84.7414 164.942C60.4068 164.954 29.4737 166.114 1.64575 165.569C1.83357 159.451 2.04642 156.887 2.29684 150.839C29.1106 149.253 57.4018 146.752 83.4893 149.391C83.9714 155.527 84.3908 158.8 84.7414 164.942Z" fill="#6C81B2" stroke="#010101" stroke-width="1.5" stroke-linecap="round" stroke-linejoin="round"/>
<path d="M195.693 310.528C195.529 313.07 193.269 314.909 191.138 316.3C188.75 317.858 186.274 318.453 183.724 319.728C182.755 320.212 181.734 320.709 181.097 321.586C180.46 322.464 180.379 323.853 181.227 324.529C181.779 324.97 182.545 324.994 183.251 324.994C194.242 324.997 204.959 325.42 216.192 324.566C216.608 324.534 217.05 324.422 217.335 324.116C217.714 323.706 217.658 323.071 217.578 322.519C217.069 319.02 216.466 314.283 215.957 310.784C215.847 310.024 215.719 309.222 215.23 308.629C214.818 308.128 214.201 307.845 213.586 307.637C211.219 306.837 208.649 306.933 206.162 307.173C202.712 307.507 199.288 308.103 195.694 310.528L195.693 310.528Z" fill="white" stroke="#010101" stroke-width="1.5" stroke-linecap="round" stroke-linejoin="round"/>
<path d="M277.738 342.617C277.614 339.57 277.137 336.541 276.324 333.623C276.258 333.39 276.181 333.142 276.002 332.997C275.726 332.773 275.339 332.885 275.014 333.006C271.541 334.298 268.067 335.589 264.594 336.881C264.717 339.141 264.839 341.399 264.961 343.659" fill="white"/>
<path d="M277.738 342.617C277.614 339.57 277.137 336.541 276.324 333.623C276.258 333.39 276.181 333.142 276.002 332.997C275.726 332.773 275.339 332.885 275.014 333.006C271.541 334.298 268.067 335.589 264.594 336.881C264.717 339.141 264.839 341.399 264.961 343.659" stroke="#010101" stroke-width="1.5" stroke-linecap="round" stroke-linejoin="round"/>
<path d="M254.071 362.327C258.771 362.337 262.806 361.852 267.472 361.235C268.405 361.112 269.375 360.962 270.156 360.39C271.385 359.49 271.848 357.796 272.289 356.254C273.34 352.578 274.742 349.022 276.466 345.663C277.176 344.278 277.966 342.661 277.422 341.188C277.214 340.625 276.827 340.16 276.391 339.784C274.844 338.45 272.678 338.196 270.764 338.714C264.923 340.298 265.009 342.932 263.515 345.635C261.213 349.801 259.196 353.558 255.867 356.794C254.757 357.873 253.775 358.484 252.491 359.304C252.055 359.582 251.583 359.92 251.468 360.456C251.336 361.072 251.762 361.699 252.291 361.957C252.821 362.215 253.445 362.285 254.071 362.329L254.071 362.327Z" fill="white" stroke="#010101" stroke-width="1.5" stroke-linecap="round" stroke-linejoin="round"/>
<path d="M215.336 84.3647C214.467 86.7558 213.598 89.1476 212.729 91.5387C211.941 93.7105 211.147 95.9011 210.818 98.1882C210.489 100.475 210.655 102.896 211.71 104.952C212.765 107.007 214.81 108.63 217.113 108.785C217.394 110.482 217.515 113.146 217.559 115.12C221.333 115.748 230 115.26 232.405 114.648C232.523 113.006 232.424 111.349 232.202 109.759C232.386 101.776 229.685 93.7581 224.711 87.5161C223.852 86.4374 222.917 85.4008 221.789 84.6073C219.796 83.2039 217.345 82.6511 215.336 84.3647Z" fill="white" stroke="#010101" stroke-width="1.5" stroke-linecap="round" stroke-linejoin="round"/>
<path d="M213.722 118.818C214.422 117.171 215.303 115.6 216.343 114.144L230.018 114.16C231.497 114.161 232.979 114.163 234.449 114.332C234.605 114.35 234.773 114.376 234.882 114.489C234.97 114.581 235.001 114.713 235.028 114.838C235.32 116.187 235.613 117.536 235.906 118.885" fill="#6C81B2"/>
<path d="M213.722 118.818C214.422 117.171 215.303 115.6 216.343 114.144L230.018 114.16C231.497 114.161 232.979 114.163 234.449 114.332C234.605 114.35 234.773 114.376 234.882 114.489C234.97 114.581 235.001 114.713 235.028 114.838C235.32 116.187 235.613 117.536 235.906 118.885" stroke="#010101" stroke-width="1.5" stroke-linecap="round" stroke-linejoin="round"/>
<path d="M156.613 396.857C153.698 391.021 149.24 388.542 143.753 385.02C140.29 382.798 136.549 380.921 132.53 380.044C128.511 379.167 124.182 379.344 120.45 381.077C119.377 381.575 118.345 382.21 117.565 383.1C115.953 384.939 115.642 387.646 116.183 390.032C116.724 392.419 118.004 394.562 119.295 396.639C119.836 397.51 146.719 397.04 156.613 396.856L156.613 396.857Z" fill="#55D087" stroke="#010101" stroke-width="1.5" stroke-linecap="round" stroke-linejoin="round"/>
<path d="M156.584 396.287C150.255 390.817 144.99 387.057 140.407 381.354C135.825 375.651 132.528 371.825 132.949 364.518C133.153 360.963 134.243 357.313 136.753 354.79C140.881 350.64 147.65 350.61 153.266 352.25C162.681 354.999 170.643 361.521 176.777 369.182C182.911 376.843 188.666 387.537 194.153 395.974C177.462 397.199 165.386 395.962 156.584 396.287Z" fill="#55D087" stroke="#010101" stroke-width="1.5" stroke-linecap="round" stroke-linejoin="round"/>
<path d="M174.925 396.857C170.361 393.7 166.687 389.439 163.16 385.152C155.553 375.908 148.376 366.308 141.659 356.397" stroke="#010101" stroke-width="1.5" stroke-linecap="round" stroke-linejoin="round"/>
<path d="M156.672 376.479C156.473 371.056 156.784 365.616 157.601 360.252" stroke="#010101" stroke-width="1.5" stroke-linecap="round" stroke-linejoin="round"/>
<path d="M127.833 383.234C131.482 387.938 134.504 391.918 138.011 396.857" stroke="#010101" stroke-width="1.5" stroke-linecap="round" stroke-linejoin="round"/>
<path d="M164.219 386.361C158.191 385.62 152.192 384.645 146.239 383.438" stroke="#010101" stroke-width="1.5" stroke-linecap="round" stroke-linejoin="round"/>
<path d="M217.209 94.7234C217.233 93.1753 218.466 91.9386 218.452 90.3899C218.434 88.3197 216.565 86.8323 215.376 85.1388C213.288 82.1648 213.329 77.8325 215.542 74.9506C215.921 74.4567 216.378 73.9898 216.964 73.7786C217.55 73.5673 218.287 73.6764 218.664 74.1715C218.984 74.5902 218.994 75.1869 219.322 75.5981C219.988 76.4323 221.337 75.9478 222.178 75.2922C223.02 74.6366 224.023 73.8137 225.02 74.1897C226.231 74.646 226.625 76.6573 227.916 76.5595C228.729 76.4975 229.274 75.5398 230.089 75.5197C231.067 75.4953 231.487 76.7062 232.039 77.5147C232.664 78.4286 233.703 78.9551 234.711 79.4126C236.839 80.3803 239.047 81.2265 240.957 82.5759C242.866 83.9254 244.486 85.8859 244.818 88.2025C245.03 89.6929 244.7 91.2028 244.334 92.6632C243.508 95.9625 242.482 99.2412 240.84 102.219C239.198 105.197 236.899 107.878 233.948 109.563C232.926 110.146 231.82 110.61 230.654 110.766C227.951 111.128 225.343 109.824 222.699 109.155C221.532 108.86 220.283 108.662 219.346 107.906C217.635 106.525 217.669 103.941 217.941 101.757C218.018 101.14 218.197 100.403 218.789 100.216C219.331 100.045 219.867 100.45 220.416 100.597C221.264 100.825 222.188 100.395 222.751 99.7206C223.313 99.0462 223.572 98.1694 223.723 97.3032C223.865 96.4915 223.922 95.6397 223.665 94.8569C223.407 94.074 222.781 93.3721 221.971 93.2216C220.377 92.9252 219.6 94.8306 218.502 95.6322C218.323 95.7626 217.2 95.2367 217.208 94.7221L217.209 94.7234Z" fill="#010101" stroke="#010101" stroke-width="1.5" stroke-linecap="round" stroke-linejoin="round"/>
<path d="M125.668 34.0224C117.94 36.8993 110.821 39.7129 103.695 43.303C103.455 43.424 103.216 43.5863 103.105 43.8307C102.964 44.1391 103.079 44.4976 103.196 44.816C105.616 51.4467 108.095 58.0553 110.632 64.6421C112.339 63.8567 114.046 63.0714 115.578 62.7354C124.174 59.6611 132.664 56.2866 141.025 52.62C138.515 47.367 135.77 41.679 133.26 36.4261C133.024 35.9322 127.74 34.6385 125.668 34.0224Z" fill="#75CBE2" stroke="#010101" stroke-width="1.5" stroke-linecap="round" stroke-linejoin="round"/>
<path d="M125.651 34.0362C126.278 35.6288 126.905 37.2214 127.532 38.8141C129.374 38.0243 131.215 37.2346 133.057 36.4449" stroke="#010101" stroke-width="1.5" stroke-linecap="round" stroke-linejoin="round"/>
<path d="M121.252 68.2523C119.932 66.4071 118.972 64.3043 118.443 62.0967C118.144 60.8488 114.574 57.206 112.934 52.4908C112.465 51.1401 113.947 50.8988 114.551 51.5582C115.83 52.9546 117.437 55.1734 118.529 56.353C116.879 54.7046 114.854 52.163 114.041 49.9762C113.909 49.6227 113.801 49.2454 113.857 48.8718C113.912 48.4983 114.172 48.1335 114.543 48.0639C115.02 47.9743 115.435 48.3742 115.755 48.7396C117.341 50.5547 119.213 53.2285 120.703 55.0468C119.611 53.8559 118.232 51.8051 117.224 50.5428C116.475 49.6045 115.74 48.6293 115.313 47.5061C115.192 47.1877 115.096 46.8492 115.128 46.5095C115.161 46.1698 115.345 45.8289 115.656 45.6891C116.232 45.4302 116.844 45.9429 117.263 46.4161C119.119 48.5165 121.163 51.5638 122.679 53.7613C121.159 52.0076 119.493 49.2755 118.364 47.2479C118.128 46.8248 117.918 46.2488 118.255 45.9016C118.457 45.6941 118.792 45.6684 119.065 45.7643C119.338 45.8602 119.562 46.0564 119.775 46.2519C121.271 47.6239 122.584 49.1815 123.893 50.7334C124.487 51.4385 125.127 52.1022 125.437 52.5002C126.227 53.5194 126.763 54.6789 127.962 57.1559C128.094 57.4304 131.22 56.4301 131.22 56.4301C131.22 56.4301 130.505 64.199 130.581 64.7706" fill="white"/>
<path d="M121.252 68.2523C119.932 66.4071 118.972 64.3043 118.443 62.0967C118.144 60.8488 114.574 57.206 112.934 52.4908C112.465 51.1401 113.947 50.8988 114.551 51.5582C115.83 52.9546 117.437 55.1734 118.529 56.353C116.879 54.7046 114.854 52.163 114.041 49.9762C113.909 49.6227 113.801 49.2454 113.857 48.8718C113.912 48.4983 114.172 48.1335 114.543 48.0639C115.02 47.9743 115.435 48.3742 115.755 48.7396C117.341 50.5547 119.213 53.2285 120.703 55.0468C119.611 53.8559 118.232 51.8051 117.224 50.5428C116.475 49.6045 115.74 48.6293 115.313 47.5061C115.192 47.1877 115.096 46.8492 115.128 46.5095C115.161 46.1698 115.345 45.8289 115.656 45.6891C116.232 45.4302 116.844 45.9429 117.263 46.4161C119.119 48.5165 121.163 51.5638 122.679 53.7613C121.159 52.0076 119.493 49.2755 118.364 47.2479C118.128 46.8248 117.918 46.2488 118.255 45.9016C118.457 45.6941 118.792 45.6684 119.065 45.7643C119.338 45.8602 119.562 46.0564 119.775 46.2519C121.271 47.6239 122.584 49.1815 123.893 50.7334C124.487 51.4385 125.127 52.1022 125.437 52.5002C126.227 53.5194 126.763 54.6789 127.962 57.1559C128.094 57.4304 131.22 56.4301 131.22 56.4301C131.22 56.4301 130.505 64.199 130.581 64.7706" stroke="#010101" stroke-width="1.5" stroke-linecap="round" stroke-linejoin="round"/>
<path d="M120.098 72.5802L119.128 70.1063C119.004 69.7898 118.884 69.4137 119.069 69.1279C119.191 68.9392 119.415 68.8471 119.624 68.7669C123.65 67.2231 127.747 65.8693 131.9 64.711C132.105 64.654 132.33 64.5989 132.522 64.6897C132.676 64.7624 132.774 64.9135 132.86 65.0595C133.426 66.0179 133.809 67.0834 133.983 68.1821" fill="white"/>
<path d="M120.098 72.5802L119.128 70.1063C119.004 69.7898 118.884 69.4137 119.069 69.1279C119.191 68.9392 119.415 68.8471 119.624 68.7669C123.65 67.2231 127.747 65.8693 131.9 64.711C132.105 64.654 132.33 64.5989 132.522 64.6897C132.676 64.7624 132.774 64.9135 132.86 65.0595C133.426 66.0179 133.809 67.0834 133.983 68.1821" stroke="#010101" stroke-width="1.5" stroke-linecap="round" stroke-linejoin="round"/>
<path d="M265.958 188.384C268.305 198.644 269.722 211.781 268.351 224.224C266.207 243.679 264.856 255.369 264.516 270.315C271.939 297.36 278.68 325.59 283.037 338.225C275.203 339.276 267.354 341.281 259.503 342.346C256.539 334.917 253.803 327.39 251.067 319.865C246.024 305.992 240.959 292.04 238.292 277.521C234.786 258.437 234.567 236.981 235.3 217.591C225.468 226.515 211.738 241.09 201.663 250.651C208.314 273.313 213.001 291.624 218.861 311.588C212.287 312.741 201.151 312.906 194.154 312.246C188.191 296.677 185.173 280.238 179.22 264.916C176.823 258.746 174.384 252.302 174.966 245.708C175.578 238.78 179.436 232.624 183.187 226.77C191.292 214.122 200.649 201.475 208.591 189.492C227.822 185.724 247.672 185.138 265.959 188.384H265.958Z" fill="#010101" stroke="#010101" stroke-width="1.5" stroke-linecap="round" stroke-linejoin="round"/>
<path d="M245.69 271.775C250.06 272.562 254.458 273.069 258.883 273.295C258.593 273.119 258.304 273.165 245.69 271.775Z" fill="white" stroke="#010101" stroke-width="1.5" stroke-linecap="round" stroke-linejoin="round"/>
<path d="M278.642 152.4C270.09 139.657 266.609 133.722 254.151 122.891C252.254 121.243 249.85 120.234 247.452 119.507C233.804 118.159 220.263 120.033 206.884 118.723C200.335 118.084 166.134 112.694 155.291 109.522C148.549 96.6043 142.576 80.7595 136.773 67.4908C130.03 69.4275 124.871 71.2828 117.997 73.2571C122.161 85.3036 126.631 95.7833 130.788 107.836C133.473 115.608 136.585 123.95 143.465 128.444C148.129 131.49 153.544 132.919 159.06 133.647C171.011 135.22 182.956 137.733 195.446 139.739C199.697 158.63 204.348 172.682 208.399 190.702C227.913 190.495 246.876 190.119 266.766 189.548C266.008 187.436 265.576 185.687 265.15 183.945C270.585 181.043 276.532 177.495 280.896 173.146C282.955 171.096 284.965 168.714 285.309 165.831C285.635 163.117 281.328 156.392 278.642 152.4ZM259.954 165.612L255.816 150.563C258.752 153.465 263.235 158.83 265.413 161.55C263.379 163.362 261.832 164.258 259.954 165.612Z" fill="#6C81B2" stroke="#010101" stroke-width="1.5" stroke-linecap="round" stroke-linejoin="round"/>
<path d="M253.477 142.683C257.702 156.318 260.346 168.145 265.412 184.498" stroke="#010101" stroke-width="1.5" stroke-linecap="round" stroke-linejoin="round"/>
<path d="M32.3286 185.793C46.3196 184.802 60.3293 184.072 74.3472 183.606C73.986 183.665 73.6248 183.723 73.2635 183.782" fill="white"/>
<path d="M32.3286 185.793C46.3196 184.802 60.3293 184.072 74.3472 183.606C73.986 183.665 73.6248 183.723 73.2635 183.782" stroke="#010101" stroke-width="1.5" stroke-linecap="round" stroke-linejoin="round"/>
<path d="M31.7156 204.052C45.771 203.54 59.8265 203.029 73.8819 202.517L31.7156 204.052Z" fill="white"/>
<path d="M31.7156 204.052C45.771 203.54 59.8265 203.029 73.8819 202.517" stroke="#010101" stroke-width="1.5" stroke-linecap="round" stroke-linejoin="round"/>
<path d="M32.3303 223.939C43.0928 224.52 53.8871 224.508 64.6483 223.904L32.3303 223.939Z" fill="white"/>
<path d="M32.3303 223.939C43.0928 224.52 53.8871 224.508 64.6483 223.904" stroke="#010101" stroke-width="1.5" stroke-linecap="round" stroke-linejoin="round"/>
<path d="M17.4148 180.017C16.0894 180.157 14.8661 180.924 14.0635 181.989C13.2609 183.054 12.8634 184.395 12.8327 185.729C12.8171 186.405 12.8947 187.093 13.1583 187.716C13.4531 188.411 13.9684 188.996 14.555 189.472C15.4728 190.217 16.5922 190.724 17.766 190.862C18.9399 191 20.1644 190.76 21.1692 190.139C22.3124 189.432 23.1356 188.246 23.4587 186.94C23.7811 185.635 23.6121 184.223 23.0442 183.004C22.7393 182.35 22.3168 181.741 21.7514 181.292C20.4718 180.278 19.3098 179.896 17.4148 180.017Z" fill="white" stroke="#010101" stroke-width="1.5" stroke-linecap="round" stroke-linejoin="round"/>
<path d="M17.4148 198.918C16.0894 199.058 14.8661 199.825 14.0635 200.89C13.2609 201.955 12.8634 203.296 12.8327 204.63C12.8171 205.306 12.8947 205.993 13.1583 206.617C13.4531 207.312 13.9684 207.897 14.555 208.373C15.4728 209.118 16.5922 209.625 17.766 209.763C18.9399 209.901 20.1644 209.661 21.1692 209.04C22.3124 208.333 23.1356 207.147 23.4587 205.841C23.7811 204.536 23.6121 203.124 23.0442 201.905C22.7393 201.251 22.3168 200.641 21.7514 200.193C20.4718 199.179 19.3098 198.798 17.4148 198.918V198.918Z" fill="white" stroke="#010101" stroke-width="1.5" stroke-linecap="round" stroke-linejoin="round"/>
<path d="M17.4148 217.818C16.0894 217.959 14.8661 218.725 14.0635 219.79C13.2609 220.855 12.8634 222.196 12.8327 223.53C12.8171 224.206 12.8947 224.894 13.1583 225.517C13.4531 226.212 13.9684 226.797 14.555 227.273C15.4728 228.018 16.5922 228.525 17.766 228.663C18.9399 228.802 20.1644 228.562 21.1692 227.94C22.3124 227.233 23.1356 226.047 23.4587 224.741C23.7811 223.436 23.6121 222.024 23.0442 220.805C22.7393 220.151 22.3168 219.542 21.7514 219.094C20.4718 218.079 19.3098 217.698 17.4148 217.819V217.818Z" fill="white" stroke="#010101" stroke-width="1.5" stroke-linecap="round" stroke-linejoin="round"/>
<path d="M136.223 289.676C136.959 262.108 136.21 234.5 133.983 207.011C110.13 204.672 84.2564 206.884 59.7365 208.289C58.6077 235.077 58.1782 262.637 58.0662 290.761C84.8743 291.432 112.939 289.596 136.223 289.676Z" fill="white" stroke="#010101" stroke-width="1.5" stroke-linecap="round" stroke-linejoin="round"/>
<path d="M135.22 221.771C112.67 221.783 84.8042 223.444 59.0923 222.886C59.2738 216.938 59.493 214.162 59.7371 208.289C84.2595 206.885 110.128 204.672 133.98 207.01C134.462 212.971 134.876 215.804 135.22 221.771Z" fill="#010101" stroke="#010101" stroke-width="1.5" stroke-linecap="round" stroke-linejoin="round"/>
<path d="M123.106 248.58C116.177 240.977 107.562 233.525 95.7518 234.423C85.5009 235.202 79.3293 238.41 71.4561 248.991C76.0031 253.114 82.7982 259.831 97.9856 258.93C107.117 258.388 120.11 253.392 123.107 248.58H123.106Z" fill="#E3E3FF" stroke="#010101" stroke-width="1.5" stroke-linecap="round" stroke-linejoin="round"/>
<path d="M90.1881 238.95C87.6996 241.13 85.9323 244.369 86.2947 247.661C86.5796 250.25 88.1447 252.603 90.242 254.145C92.3393 255.686 94.9261 256.467 97.5186 256.692C101.17 257.009 105.312 255.98 107.211 252.842C108.03 251.488 108.342 249.871 108.314 248.289C108.262 245.369 108.219 242.537 105.784 239.624C103.911 237.384 95.8063 234.028 90.1881 238.95Z" fill="white" stroke="#010101" stroke-width="1.5" stroke-linecap="round" stroke-linejoin="round"/>
<path d="M74.6477 269.655C89.2416 269.702 103.01 268.889 118.974 269.576L74.6477 269.655Z" fill="white"/>
<path d="M74.6477 269.655C89.2416 269.702 103.01 268.889 118.974 269.576" stroke="#010101" stroke-width="1.5" stroke-linecap="round" stroke-linejoin="round"/>
<path d="M83.8525 276.717C92.5196 276.745 101.187 276.284 109.849 276.59L83.8525 276.717Z" fill="white"/>
<path d="M83.8525 276.717C92.5196 276.745 101.187 276.284 109.849 276.59" stroke="#010101" stroke-width="1.5" stroke-linecap="round" stroke-linejoin="round"/>
<path d="M66.3676 319.365C60.0621 322.39 53.1379 325.494 46.3228 323.932C40.858 322.681 36.4299 318.545 33.4205 313.81C31.8616 311.356 30.5863 308.616 30.468 305.71C30.3497 302.805 31.5868 299.715 34.0891 298.237C36.5914 296.76 40.3327 297.458 41.6537 300.049C42.8763 302.446 41.6186 305.618 39.3085 306.996C36.9984 308.373 33.9902 308.167 31.5649 307.004C29.1402 305.841 27.2169 303.841 25.5661 301.715C22.1484 297.315 19.6079 291.89 20.075 286.336" stroke="#010101" stroke-width="1.5" stroke-linecap="round" stroke-linejoin="round"/>
<path d="M214.851 43.9304C214.273 43.852 213.662 44.1316 213.344 44.6204C213.025 45.1093 213.014 45.7812 213.318 46.2795C213.859 47.167 215.341 47.2084 215.955 46.3698C216.568 45.5311 216.123 44.1027 214.851 43.9304Z" fill="#010101"/>
<path d="M285.607 217.722C284.746 217.606 283.836 218.023 283.361 218.75C282.886 219.478 282.871 220.48 283.323 221.222C284.128 222.544 286.337 222.606 287.251 221.357C288.165 220.108 287.502 217.979 285.607 217.722Z" fill="#010101"/>
<path d="M136.389 307.566C136.043 307.519 135.676 307.687 135.485 307.981C135.293 308.274 135.287 308.677 135.469 308.976C135.793 309.508 136.683 309.533 137.051 309.03C137.419 308.527 137.153 307.67 136.389 307.566Z" fill="#010101"/>
<path d="M50.9448 113.292C50.136 113.182 49.2808 113.574 48.8344 114.258C48.388 114.942 48.3736 115.883 48.7987 116.581C49.5556 117.823 51.6316 117.881 52.4905 116.707C53.3495 115.533 52.7266 113.533 50.9455 113.291L50.9448 113.292Z" fill="#010101"/>
<path d="M277.949 111.533L280.627 109.327C280.517 109.389 280.407 109.452 277.949 111.533Z" stroke="#010101" stroke-width="1.5" stroke-linecap="round" stroke-linejoin="round"/>
<path d="M293.827 375.245C294.874 375.49 295.922 375.735 296.968 375.979" stroke="#010101" stroke-width="1.5" stroke-linecap="round" stroke-linejoin="round"/>
<path d="M88.2349 333.629C88.9698 332.844 89.7055 332.059 90.4404 331.273" stroke="#010101" stroke-width="1.5" stroke-linecap="round" stroke-linejoin="round"/>
</g>
</g>
<defs>
<clipPath id="clip0_85_347">
<rect width="298" height="398" fill="white"/>
</clipPath>
</defs>
</svg>
