<svg width="64" height="64" viewBox="0 0 64 64" fill="none" xmlns="http://www.w3.org/2000/svg">
<path d="M56.8799 34.4267C57.1199 38.56 55.2266 42.5333 51.8399 44.96L53.8932 48.9333C54.5066 50.1333 54.5866 51.5467 54.0532 52.8C53.5466 54.0533 52.5066 55.04 51.2266 55.4667L49.1199 56.1333C48.2426 56.4277 47.2959 56.4448 46.4086 56.1824C45.5212 55.92 44.7361 55.3908 44.1599 54.6667L38.5066 48C36.1332 47.6 33.8932 46.5867 31.9999 45.0667C30.6666 45.4667 29.3332 45.68 27.9999 45.68C25.6532 45.68 23.3066 44.96 21.3332 43.5733C19.9199 44 18.4799 44.1867 17.0132 44.16C14.9066 44.1867 12.8266 43.76 10.8799 42.96C9.0052 42.1253 7.40327 40.7797 6.25734 39.0773C5.1114 37.3749 4.46772 35.3844 4.39991 33.3333C4.18657 31.4133 4.50658 29.4667 5.33324 27.7067C4.55991 25.7067 4.47991 23.52 5.14657 21.4933C6.13324 18.96 7.99991 16.8533 10.3199 15.52C11.8666 11.0133 16.2132 8.00001 20.9866 8.32001C25.2532 4.32001 31.7866 3.89334 36.5332 7.33334C37.6532 7.04001 38.8266 6.88001 39.9999 6.88001C43.6266 6.80001 47.0666 8.40001 49.3332 11.2533C54.7732 12.6667 58.6666 17.52 58.8799 23.1733C59.0132 26.1333 58.2132 29.04 56.5866 31.52C56.7732 32.48 56.8799 33.44 56.8799 34.4267ZM43.5466 30.6667C45.0666 30.8533 46.2666 32 46.2666 33.52C46.2666 34.2273 45.9856 34.9055 45.4855 35.4056C44.9854 35.9057 44.3072 36.1867 43.5999 36.1867H41.9199C41.0666 38.5867 39.5732 40.6933 37.5999 42.2933C38.2666 42.5333 38.9599 42.6667 39.6532 42.8533C53.3332 42.6667 51.7332 34.32 51.7332 34.1867C51.6989 33.2795 51.486 32.3879 51.1068 31.5631C50.7276 30.7382 50.1895 29.9962 49.5232 29.3795C48.857 28.7628 48.0757 28.2834 47.224 27.969C46.3724 27.6545 45.4671 27.511 44.5599 27.5467C43.8527 27.5467 43.1744 27.2657 42.6743 26.7656C42.1742 26.2655 41.8932 25.5873 41.8932 24.88C41.8932 24.1728 42.1742 23.4945 42.6743 22.9944C43.1744 22.4943 43.8527 22.2133 44.5599 22.2133C47.8399 22.2933 50.9866 23.52 53.4399 25.68C53.5732 24.9067 53.6532 24.1067 53.6532 23.3067C53.4932 20 51.9999 17.12 45.9999 16.56C42.6666 8.66667 34.2666 13.04 34.2666 15.4933C34.1866 16.1067 34.8266 17.4133 34.9332 17.4933C35.6405 17.4933 36.3188 17.7743 36.8189 18.2744C37.319 18.7745 37.5999 19.4528 37.5999 20.16C37.5999 21.6267 36.3999 22.8267 34.9332 22.8267C33.5199 22.7733 32.1866 22.24 31.1199 21.3333C29.8399 22.16 28.3732 22.6667 26.8532 22.8267C25.3332 22.96 24.0799 21.8933 23.9999 20.4267C23.9516 20.0785 23.9747 19.724 24.068 19.3851C24.1612 19.0461 24.3225 18.7297 24.5422 18.4551C24.7618 18.1806 25.0351 17.9537 25.3453 17.7884C25.6555 17.623 25.9962 17.5226 26.3466 17.4933C26.7732 17.44 28.8532 17.12 28.8532 15.44C28.8532 13.68 29.5199 12 30.6666 10.6667C28.2132 10 25.5732 10.88 22.9066 14.1067C17.9999 13.3333 15.9999 14 14.5332 19.2C11.9999 20.4533 10.6666 21.3333 10.0799 24C12.9599 23.4133 15.9199 23.6533 18.6666 24.6667C19.9999 25.1733 20.7466 26.6667 20.2399 28.1067C19.7332 29.4933 18.1866 30.1867 16.7999 29.68C14.8532 28.8267 12.6666 28.7733 10.6666 29.52C9.81324 30.24 9.81324 31.7333 9.81324 32.9067C9.81324 34.88 10.7999 36.72 12.4799 37.7867C13.8932 38.5067 15.4666 38.88 17.0399 38.8533C16.6399 38.16 16.2932 37.44 15.9999 36.6933C15.79 36.0082 15.8539 35.2684 16.1783 34.6294C16.5027 33.9905 17.0622 33.5022 17.7392 33.2673C18.4162 33.0325 19.1579 33.0693 19.8083 33.37C20.4587 33.6708 20.9671 34.2121 21.2266 34.88C22.2932 37.92 25.0132 40 28.2132 40.3467C31.8666 40.16 35.1199 38 36.7199 34.6667C37.3332 30.9867 40.2932 30.6667 43.5466 30.6667ZM48.8799 50.5867L47.2266 47.12L45.3332 47.5467L47.9999 50.88L48.8799 50.5867ZM36.4799 27.6267C36.5031 26.9454 36.2645 26.2812 35.8132 25.7704C35.3619 25.2596 34.7321 24.941 34.0532 24.88C32.1599 24.7733 30.3199 25.4133 28.9066 26.6667C27.3866 28.2133 26.5866 30.3467 26.6666 32.5067C26.6666 33.2139 26.9475 33.8922 27.4476 34.3923C27.9477 34.8924 28.626 35.1733 29.3332 35.1733C30.8532 35.1733 31.9999 33.9733 31.9999 32.5067C31.9999 31.7867 32.1866 31.0667 32.6132 30.48C32.9332 30.2133 33.3332 30.08 33.7599 30.08C35.2266 30.16 36.4799 29.0667 36.4799 27.6267Z" fill="white"/>
</svg>
