<svg width="32" height="32" viewBox="0 0 32 32" fill="none" xmlns="http://www.w3.org/2000/svg">
<path d="M16 28C12.6444 28 9.80578 27.4836 7.484 26.4507C5.16222 25.4178 4.00089 24.1564 4 22.6667V9.33333C4 7.86667 5.17244 6.61111 7.51733 5.56667C9.86222 4.52222 12.6898 4 16 4C19.3102 4 22.1382 4.52222 24.484 5.56667C26.8298 6.61111 28.0018 7.86667 28 9.33333V22.6667C28 24.1556 26.8387 25.4169 24.516 26.4507C22.1933 27.4844 19.3547 28.0009 16 28ZM16 12.0333C17.9778 12.0333 19.9667 11.7498 21.9667 11.1827C23.9667 10.6156 25.0889 10.0102 25.3333 9.36667C25.0889 8.72222 23.9724 8.11111 21.984 7.53333C19.9956 6.95556 18.0009 6.66667 16 6.66667C13.9778 6.66667 11.9947 6.95022 10.0507 7.51733C8.10667 8.08444 6.97867 8.70089 6.66667 9.36667C6.97778 10.0333 8.10578 10.6444 10.0507 11.2C11.9956 11.7556 13.9787 12.0333 16 12.0333ZM16 18.6667C16.9333 18.6667 17.8333 18.6222 18.7 18.5333C19.5667 18.4444 20.3947 18.3164 21.184 18.1493C21.9733 17.9822 22.7178 17.7769 23.4173 17.5333C24.1169 17.2898 24.7556 17.012 25.3333 16.7V12.7C24.7556 13.0111 24.1169 13.2889 23.4173 13.5333C22.7178 13.7778 21.9733 13.9836 21.184 14.1507C20.3947 14.3178 19.5667 14.4453 18.7 14.5333C17.8333 14.6213 16.9333 14.6658 16 14.6667C15.0667 14.6676 14.1556 14.6231 13.2667 14.5333C12.3778 14.4436 11.5387 14.3156 10.7493 14.1493C9.96 13.9831 9.22133 13.7778 8.53333 13.5333C7.84533 13.2889 7.22311 13.0111 6.66667 12.7V16.7C7.22222 17.0111 7.84444 17.2889 8.53333 17.5333C9.22222 17.7778 9.96133 17.9836 10.7507 18.1507C11.54 18.3178 12.3787 18.4453 13.2667 18.5333C14.1547 18.6213 15.0658 18.6658 16 18.6667ZM16 25.3333C17.0222 25.3333 18.0613 25.2556 19.1173 25.1C20.1733 24.9444 21.1453 24.7391 22.0333 24.484C22.9213 24.2289 23.6658 23.94 24.2667 23.6173C24.8676 23.2947 25.2231 22.9667 25.3333 22.6333V19.3667C24.7556 19.6778 24.1169 19.9556 23.4173 20.2C22.7178 20.4444 21.9733 20.6502 21.184 20.8173C20.3947 20.9844 19.5667 21.112 18.7 21.2C17.8333 21.288 16.9333 21.3324 16 21.3333C15.0667 21.3342 14.1556 21.2898 13.2667 21.2C12.3778 21.1102 11.5387 20.9822 10.7493 20.816C9.96 20.6498 9.22133 20.4444 8.53333 20.2C7.84533 19.9556 7.22311 19.6778 6.66667 19.3667V22.6667C6.77778 23 7.128 23.3222 7.71733 23.6333C8.30667 23.9444 9.04533 24.228 9.93333 24.484C10.8213 24.74 11.7991 24.9453 12.8667 25.1C13.9342 25.2547 14.9787 25.3324 16 25.3333Z" fill="black"/>
</svg>
