<svg width="32" height="32" viewBox="0 0 32 32" fill="none" xmlns="http://www.w3.org/2000/svg">
<path d="M15.9999 6.39995C15.1512 6.39995 14.3373 6.73709 13.7372 7.33721C13.137 7.93733 12.7999 8.75126 12.7999 9.59995C12.7999 10.4486 13.137 11.2626 13.7372 11.8627C14.3373 12.4628 15.1512 12.8 15.9999 12.8C16.8486 12.8 17.6625 12.4628 18.2626 11.8627C18.8628 11.2626 19.1999 10.4486 19.1999 9.59995C19.1999 8.75126 18.8628 7.93733 18.2626 7.33721C17.6625 6.73709 16.8486 6.39995 15.9999 6.39995ZM10.3999 23.2C10.1877 23.2 9.98425 23.2842 9.83422 23.4343C9.68419 23.5843 9.5999 23.7878 9.5999 24C9.5999 24.2121 9.68419 24.4156 9.83422 24.5656C9.98425 24.7157 10.1877 24.8 10.3999 24.8H21.5999C21.8121 24.8 22.0156 24.7157 22.1656 24.5656C22.3156 24.4156 22.3999 24.2121 22.3999 24C22.3999 23.7878 22.3156 23.5843 22.1656 23.4343C22.0156 23.2842 21.8121 23.2 21.5999 23.2H10.3999ZM6.3999 6.39995C6.3999 5.55126 6.73704 4.73733 7.33716 4.13721C7.93728 3.53709 8.75121 3.19995 9.5999 3.19995H22.3999C23.2486 3.19995 24.0625 3.53709 24.6626 4.13721C25.2628 4.73733 25.5999 5.55126 25.5999 6.39995V25.6C25.5999 26.4486 25.2628 27.2626 24.6626 27.8627C24.0625 28.4628 23.2486 28.8 22.3999 28.8H9.5999C8.75121 28.8 7.93728 28.4628 7.33716 27.8627C6.73704 27.2626 6.3999 26.4486 6.3999 25.6V6.39995ZM22.3999 4.79995H9.5999C9.17556 4.79995 8.76859 4.96852 8.46853 5.26858C8.16847 5.56864 7.9999 5.9756 7.9999 6.39995V19.2H11.1999V16C11.1999 15.5756 11.3685 15.1686 11.6685 14.8686C11.9686 14.5685 12.3756 14.4 12.7999 14.4H19.1999C19.6242 14.4 20.0312 14.5685 20.3313 14.8686C20.6313 15.1686 20.7999 15.5756 20.7999 16V19.2H23.9999V6.39995C23.9999 5.9756 23.8313 5.56864 23.5313 5.26858C23.2312 4.96852 22.8242 4.79995 22.3999 4.79995ZM7.9999 20.8V25.6C7.9999 26.0243 8.16847 26.4313 8.46853 26.7313C8.76859 27.0314 9.17556 27.2 9.5999 27.2H22.3999C22.8242 27.2 23.2312 27.0314 23.5313 26.7313C23.8313 26.4313 23.9999 26.0243 23.9999 25.6V20.8H7.9999Z" fill="white"/>
</svg>
