<svg width="32" height="32" viewBox="0 0 32 32" fill="none" xmlns="http://www.w3.org/2000/svg">
<path fill-rule="evenodd" clip-rule="evenodd" d="M16 28V20H18V28H28V10H30V28C30 28.5304 29.7893 29.0391 29.4142 29.4142C29.0391 29.7893 28.5304 30 28 30H4C3.46957 30 2.96086 29.7893 2.58579 29.4142C2.21071 29.0391 2 28.5304 2 28V24H4V28H16ZM25.706 7.708L19.708 13.708C20.0288 14.3759 20.0912 15.1388 19.883 15.8499C19.6749 16.561 19.211 17.1699 18.5806 17.5593C17.9503 17.9487 17.1982 18.0911 16.4691 17.959C15.7401 17.827 15.0857 17.4298 14.632 16.844L9.204 18.652L8 19.054C7.98738 19.7616 7.72498 20.442 7.25919 20.9749C6.79339 21.5078 6.1542 21.8588 5.4546 21.9659C4.75501 22.0731 4.04006 21.9294 3.43614 21.5604C2.83223 21.1913 2.37824 20.6206 2.15443 19.9492C1.93062 19.2778 1.9514 18.5488 2.2131 17.8912C2.4748 17.2336 2.96056 16.6897 3.58452 16.3557C4.20848 16.0216 4.93045 15.919 5.62281 16.0658C6.31516 16.2126 6.93332 16.5995 7.368 17.158L14 14.946C14.0089 14.4439 14.1438 13.952 14.3922 13.5155C14.6406 13.079 14.9946 12.7119 15.4217 12.4477C15.8489 12.1836 16.3355 12.0309 16.837 12.0037C17.3385 11.9765 17.8388 12.0756 18.292 12.292L24.292 6.292C23.987 5.65341 23.9175 4.92755 24.0959 4.2427C24.2743 3.55786 24.6891 2.95813 25.2669 2.54952C25.8447 2.14092 26.5484 1.94974 27.2536 2.00978C27.9587 2.06983 28.6199 2.37723 29.1204 2.87765C29.6208 3.37807 29.9282 4.03929 29.9882 4.74444C30.0483 5.44958 29.8571 6.15326 29.4485 6.73108C29.0399 7.30891 28.4401 7.72368 27.7553 7.90208C27.0705 8.08048 26.3446 8.01103 25.706 7.706" fill="black"/>
</svg>
